LilGrotesk-Regular.ufo
<glyph name="exclam" format="1">
  <advance width="369"/>
  <unicode hex="0021"/>
  <outline>
    <contour>
      <point x="151.66" y="240.85" type="line"/>
      <point x="221.66" y="240.85" type="line"/>
      <point x="239.79" y="708" type="line"/>
      <point x="133.53" y="708" type="line"/>
    </contour>
    <contour>
      <point x="221.22" y="0"/>
      <point x="249.3" y="28.08"/>
      <point x="249.3" y="62.73" type="curve" smooth="yes"/>
      <point x="249.3" y="97.37"/>
      <point x="221.22" y="125.45"/>
      <point x="186.57" y="125.45" type="curve" smooth="yes"/>
      <point x="151.93" y="125.45"/>
      <point x="123.85" y="97.37"/>
      <point x="123.85" y="62.73" type="curve" smooth="yes"/>
      <point x="123.85" y="28.08"/>
      <point x="151.93" y="0"/>
      <point x="186.57" y="0" type="curve" smooth="yes"/>
    </contour>
  </outline>
</glyph>
<glyph name="numbersign" format="1">
  <advance width="678"/>
  <unicode hex="0023"/>
  <outline>
    <contour>
      <point x="537.25" y="480.11" type="line"/>
      <point x="665.87" y="480.11" type="line"/>
      <point x="665.87" y="544.11" type="line"/>
      <point x="554.76" y="544.11" type="line"/>
      <point x="610.24" y="746.91" type="line"/>
      <point x="538.02" y="746.91" type="line"/>
      <point x="482.54" y="544.11" type="line"/>
      <point x="295.67" y="544.11" type="line"/>
      <point x="348.68" y="740.15" type="line"/>
      <point x="276.46" y="740.15" type="line"/>
      <point x="223.45" y="544.11" type="line"/>
      <point x="92.5901" y="544.11" type="line"/>
      <point x="92.5901" y="480.11" type="line"/>
      <point x="206.14" y="480.11" type="line"/>
      <point x="142.29" y="243.97" type="line"/>
      <point x="12.0001" y="243.97" type="line"/>
      <point x="12.0001" y="179.97" type="line"/>
      <point x="124.99" y="179.97" type="line"/>
      <point x="76.3401" y="0.0699921" type="line"/>
      <point x="148.56" y="0.0699921" type="line"/>
      <point x="197.21" y="179.97" type="line"/>
      <point x="382.91" y="179.97" type="line"/>
      <point x="333.9" y="0.819992" type="line"/>
      <point x="406.12" y="0.819992" type="line"/>
      <point x="455.13" y="179.97" type="line"/>
      <point x="585.28" y="179.97" type="line"/>
      <point x="585.28" y="243.97" type="line"/>
      <point x="472.64" y="243.97" type="line"/>
    </contour>
    <contour>
      <point x="465.03" y="480.11" type="line"/>
      <point x="400.42" y="243.97" type="line"/>
      <point x="214.51" y="243.97" type="line"/>
      <point x="278.36" y="480.11" type="line"/>
    </contour>
  </outline>
</glyph>
<glyph name="dollar" format="1">
  <advance width="600"/>
  <unicode hex="0024"/>
  <outline>
    <contour>
      <point x="486.23" y="631.58" type="line"/>
      <point x="486.23" y="631.62"/>
      <point x="430.06" y="705.15"/>
      <point x="329.27" y="727.87" type="curve"/>
      <point x="329.27" y="810.13" type="line"/>
      <point x="259.27" y="810.13" type="line"/>
      <point x="259.27" y="734.18" type="line"/>
      <point x="142.14" y="728.7"/>
      <point x="57.77" y="639.73"/>
      <point x="67.22" y="526.94" type="curve" smooth="yes"/>
      <point x="76.58" y="415.17"/>
      <point x="189.39" y="366.86"/>
      <point x="267.71" y="337.62" type="curve" smooth="yes"/>
      <point x="293.96" y="327.9" type="line" smooth="yes"/>
      <point x="351.42" y="306.52"/>
      <point x="462.55" y="277.17"/>
      <point x="462.55" y="171.09" type="curve" smooth="yes"/>
      <point x="462.55" y="73.23"/>
      <point x="376.5" y="32.1"/>
      <point x="284.28" y="32.1" type="curve" smooth="yes"/>
      <point x="184.24" y="32.1"/>
      <point x="116.21" y="92.39"/>
      <point x="92.3001" y="132.75" type="curve"/>
      <point x="32.0801" y="100.14" type="line"/>
      <point x="58.8401" y="54.94"/>
      <point x="141.8" y="-21.25"/>
      <point x="259.27" y="-30.97" type="curve"/>
      <point x="259.27" y="-107" type="line"/>
      <point x="329.27" y="-107" type="line"/>
      <point x="329.27" y="-29.13" type="line"/>
      <point x="432.25" y="-15.91"/>
      <point x="532.55" y="44.06"/>
      <point x="532.55" y="171.09" type="curve" smooth="yes"/>
      <point x="532.55" y="325.27"/>
      <point x="374.27" y="367.08"/>
      <point x="318.37" y="387.88" type="curve" smooth="yes"/>
      <point x="292.2" y="397.58" type="line" smooth="yes"/>
      <point x="219.27" y="424.8"/>
      <point x="143.09" y="459.29"/>
      <point x="136.98" y="532.28" type="curve" smooth="yes"/>
      <point x="130.27" y="612.29"/>
      <point x="194.69" y="674.76"/>
      <point x="280.54" y="670.18" type="curve" smooth="yes"/>
      <point x="375.32" y="665.13"/>
      <point x="431.19" y="592"/>
      <point x="431.19" y="592.04" type="curve"/>
    </contour>
  </outline>
</glyph>
<glyph name="percent" format="1">
  <advance width="675"/>
  <unicode hex="0025"/>
  <outline>
    <contour>
      <point x="256.27" y="356"/>
      <point x="312.72" y="417.79"/>
      <point x="312.72" y="534.96" type="curve" smooth="yes"/>
      <point x="312.72" y="652.21"/>
      <point x="256.17" y="711.13"/>
      <point x="188" y="711.13" type="curve" smooth="yes"/>
      <point x="119.82" y="711.13"/>
      <point x="63.2801" y="652.21"/>
      <point x="63.2801" y="534.96" type="curve" smooth="yes"/>
      <point x="63.2801" y="417.79"/>
      <point x="119.72" y="356"/>
      <point x="188" y="356" type="curve" smooth="yes"/>
    </contour>
    <contour>
      <point x="73.7001" y="0.039978" type="line"/>
      <point x="155.72" y="0.039978" type="line"/>
      <point x="630.25" y="710.78" type="line"/>
      <point x="548.54" y="710.78" type="line"/>
    </contour>
    <contour>
      <point x="162.88" y="420"/>
      <point x="133.28" y="452.32"/>
      <point x="133.28" y="534.96" type="curve" smooth="yes"/>
      <point x="133.28" y="616.8"/>
      <point x="161.99" y="647.13"/>
      <point x="188" y="647.13" type="curve" smooth="yes"/>
      <point x="214.01" y="647.13"/>
      <point x="242.72" y="616.8"/>
      <point x="242.72" y="534.96" type="curve" smooth="yes"/>
      <point x="242.72" y="452.32"/>
      <point x="213.11" y="420"/>
      <point x="188" y="420" type="curve" smooth="yes"/>
    </contour>
    <contour>
      <point x="506.9" y="-4.00006" type="line"/>
      <point x="575.18" y="-4.00006"/>
      <point x="631.62" y="57.3999"/>
      <point x="631.62" y="174.57" type="curve" smooth="yes"/>
      <point x="631.62" y="291.82"/>
      <point x="575.07" y="350.74"/>
      <point x="506.9" y="350.74" type="curve" smooth="yes"/>
      <point x="438.72" y="350.74"/>
      <point x="382.18" y="291.82"/>
      <point x="382.18" y="174.57" type="curve" smooth="yes"/>
      <point x="382.18" y="57.3999"/>
      <point x="438.62" y="-4.00005"/>
      <point x="506.9" y="-4.00005" type="curve"/>
    </contour>
    <contour>
      <point x="481.79" y="59.61"/>
      <point x="452.18" y="91.93"/>
      <point x="452.18" y="174.57" type="curve" smooth="yes"/>
      <point x="452.18" y="256.41"/>
      <point x="480.89" y="286.74"/>
      <point x="506.9" y="286.74" type="curve" smooth="yes"/>
      <point x="532.91" y="286.74"/>
      <point x="561.62" y="256.4"/>
      <point x="561.62" y="174.57" type="curve" smooth="yes"/>
      <point x="561.62" y="91.93"/>
      <point x="532.01" y="59.61"/>
      <point x="506.9" y="59.61" type="curve" smooth="yes"/>
    </contour>
  </outline>
</glyph>
<glyph name="ampersand" format="1">
  <advance width="692"/>
  <unicode hex="0026"/>
  <outline>
    <contour>
      <point x="583.54" y="0" type="line"/>
      <point x="677.79" y="0" type="line"/>
      <point x="526.97" y="153.08" type="line"/>
      <point x="554.9" y="213.03"/>
      <point x="565.31" y="277.41"/>
      <point x="565.31" y="326.94" type="curve"/>
      <point x="495.31" y="326.94" type="line"/>
      <point x="495.31" y="289.5"/>
      <point x="489.73" y="246.51"/>
      <point x="475.54" y="205.48" type="curve"/>
      <point x="395.06" y="287.57"/>
      <point x="315.92" y="368.87"/>
      <point x="292.23" y="395.02" type="curve"/>
      <point x="300.51" y="397.85" type="line" smooth="yes"/>
      <point x="389.75" y="427.86"/>
      <point x="458.67" y="466.38"/>
      <point x="476.7" y="547.92" type="curve" smooth="yes"/>
      <point x="501.07" y="658.15"/>
      <point x="409.85" y="725.39"/>
      <point x="330.52" y="725.39" type="curve" smooth="yes"/>
      <point x="255.06" y="725.39"/>
      <point x="177.27" y="677.25"/>
      <point x="160.84" y="584.81" type="curve" smooth="yes"/>
      <point x="149.61" y="521.64"/>
      <point x="167.77" y="465.48"/>
      <point x="190.44" y="423.06" type="curve"/>
      <point x="101.84" y="379.9"/>
      <point x="39.2099" y="321.68"/>
      <point x="21.8599" y="242.65" type="curve" smooth="yes"/>
      <point x="-10.0001" y="98.6699"/>
      <point x="89.5899" y="-22.0001"/>
      <point x="244.74" y="-22.0001" type="curve" smooth="yes"/>
      <point x="364.18" y="-22.0001"/>
      <point x="442.3" y="27.6599"/>
      <point x="491.49" y="93.3699" type="curve"/>
    </contour>
    <contour>
      <point x="240.18" y="632.23"/>
      <point x="284.82" y="661.39"/>
      <point x="330.52" y="661.39" type="curve" smooth="yes"/>
      <point x="372.61" y="661.39"/>
      <point x="421.62" y="621.77"/>
      <point x="408.35" y="561.74" type="curve" smooth="yes"/>
      <point x="396.55" y="508.39"/>
      <point x="357.32" y="485.12"/>
      <point x="278.2" y="458.51" type="curve" smooth="yes"/>
      <point x="253.19" y="449.68" type="line"/>
      <point x="235.03" y="482.55"/>
      <point x="221.11" y="524.97"/>
      <point x="229.76" y="573.61" type="curve" smooth="yes"/>
    </contour>
    <contour>
      <point x="138.06" y="41.9999"/>
      <point x="67.3099" y="124.52"/>
      <point x="90.2299" y="228.93" type="curve" smooth="yes"/>
      <point x="103.53" y="289.48"/>
      <point x="149.86" y="333.18"/>
      <point x="226.2" y="368.69" type="curve"/>
      <point x="232.91" y="360.37" type="line" smooth="yes"/>
      <point x="248.49" y="341.52"/>
      <point x="353.25" y="234.14"/>
      <point x="444.24" y="141.45" type="curve"/>
      <point x="406.27" y="84.4799"/>
      <point x="343.55" y="41.9999"/>
      <point x="244.74" y="41.9999" type="curve" smooth="yes"/>
    </contour>
  </outline>
</glyph>
<glyph name="parenleft" format="1">
  <advance width="264"/>
  <unicode hex="0028"/>
  <outline>
    <contour>
      <point x="239.08" y="-95" type="line"/>
      <point x="239.08" y="-95"/>
      <point x="120" y="107.12"/>
      <point x="120" y="324.58" type="curve" smooth="yes"/>
      <point x="120" y="541.43"/>
      <point x="238.44" y="726.53"/>
      <point x="238.44" y="726.51" type="curve"/>
      <point x="179.14" y="760.52" type="line"/>
      <point x="179.14" y="760.5"/>
      <point x="50" y="558.67"/>
      <point x="50" y="324.58" type="curve" smooth="yes"/>
      <point x="50" y="91.08"/>
      <point x="178.49" y="-127"/>
      <point x="178.49" y="-127" type="curve"/>
    </contour>
  </outline>
</glyph>
<glyph name="comma" format="1">
  <advance width="265"/>
  <unicode hex="002C"/>
  <outline>
    <contour>
      <point x="58.17" y="-98" type="line"/>
      <point x="120.81" y="-126" type="line"/>
      <point x="181.35" y="-7" type="line"/>
      <point x="181.35" y="90.61" type="line"/>
      <point x="110.35" y="90.61" type="line"/>
      <point x="110.35" y="6.89999" type="line"/>
    </contour>
  </outline>
</glyph>
<glyph name="zero" format="1">
  <advance width="609"/>
  <unicode hex="0030"/>
  <outline>
    <contour>
      <point x="304.68" y="-6" type="line"/>
      <point x="439.66" y="-6"/>
      <point x="549.09" y="113.79"/>
      <point x="549.09" y="352.25" type="curve" smooth="yes"/>
      <point x="549.09" y="590.72"/>
      <point x="439.66" y="704.73"/>
      <point x="304.68" y="704.73" type="curve" smooth="yes"/>
      <point x="169.7" y="704.73"/>
      <point x="60.28" y="590.72"/>
      <point x="60.28" y="352.25" type="curve" smooth="yes"/>
      <point x="60.28" y="113.79"/>
      <point x="169.7" y="-6.00003"/>
      <point x="304.68" y="-6.00003" type="curve"/>
    </contour>
    <contour>
      <point x="213.87" y="57.66"/>
      <point x="130.28" y="148.59"/>
      <point x="130.28" y="352.25" type="curve" smooth="yes"/>
      <point x="130.28" y="554.97"/>
      <point x="212.78" y="640.73"/>
      <point x="304.68" y="640.73" type="curve" smooth="yes"/>
      <point x="396.58" y="640.73"/>
      <point x="479.09" y="554.97"/>
      <point x="479.09" y="352.25" type="curve" smooth="yes"/>
      <point x="479.09" y="148.59"/>
      <point x="395.49" y="57.66"/>
      <point x="304.68" y="57.66" type="curve" smooth="yes"/>
    </contour>
  </outline>
</glyph>
<glyph name="one" format="1">
  <advance width="441"/>
  <unicode hex="0031"/>
  <outline>
    <contour>
      <point x="416.58" y="0.449997" type="line"/>
      <point x="416.58" y="64.45" type="line"/>
      <point x="253.7" y="64.45" type="line"/>
      <point x="253.7" y="700" type="line"/>
      <point x="191.34" y="700" type="line"/>
      <point x="31.86" y="633.71" type="line"/>
      <point x="31.86" y="550.7" type="line"/>
      <point x="183.7" y="628.96" type="line"/>
      <point x="183.7" y="64.45" type="line"/>
      <point x="24" y="64.45" type="line"/>
      <point x="24" y="0.450012" type="line"/>
      <point x="183.7" y="0.450012" type="line"/>
      <point x="253.7" y="1.52588e-05" type="line"/>
    </contour>
  </outline>
</glyph>
<glyph name="two" format="1">
  <advance width="476"/>
  <unicode hex="0032"/>
  <outline>
    <contour>
      <point x="459.65" y="70" type="line"/>
      <point x="114.63" y="70" type="line"/>
      <point x="214.08" y="170.77"/>
      <point x="346.31" y="308.18"/>
      <point x="400.2" y="383.44" type="curve" smooth="yes"/>
      <point x="508.6" y="534.89"/>
      <point x="400.92" y="706.35"/>
      <point x="231.31" y="706.35" type="curve" smooth="yes"/>
      <point x="137.56" y="706.35"/>
      <point x="58.8499" y="646.05"/>
      <point x="30.7299" y="562.03" type="curve"/>
      <point x="100.11" y="539.81" type="line"/>
      <point x="118.85" y="595.82"/>
      <point x="169.26" y="636.35"/>
      <point x="231.31" y="636.35" type="curve" smooth="yes"/>
      <point x="348.21" y="636.35"/>
      <point x="416.31" y="526.21"/>
      <point x="343.28" y="424.19" type="curve" smooth="yes"/>
      <point x="284.68" y="342.34"/>
      <point x="121.69" y="176.59"/>
      <point x="18" y="70.0001" type="curve"/>
      <point x="18" y="6.10352e-05" type="line"/>
      <point x="459.65" y="6.10352e-05" type="line"/>
    </contour>
  </outline>
</glyph>
<glyph name="three" format="1">
  <advance width="464"/>
  <unicode hex="0033"/>
  <outline>
    <contour>
      <point x="113" y="556.64" type="line"/>
      <point x="122.82" y="598.03"/>
      <point x="155.48" y="639.93"/>
      <point x="217.23" y="639.93" type="curve" smooth="yes"/>
      <point x="276.53" y="639.93"/>
      <point x="324.68" y="591.79"/>
      <point x="324.68" y="529.49" type="curve" smooth="yes"/>
      <point x="324.68" y="467.19"/>
      <point x="286.53" y="419.04"/>
      <point x="197.23" y="419.04" type="curve" smooth="yes"/>
      <point x="185.09" y="419.05" type="line"/>
      <point x="185.09" y="355.03" type="line"/>
      <point x="197.23" y="355.04" type="line" smooth="yes"/>
      <point x="307.23" y="355.04"/>
      <point x="365.78" y="290.06"/>
      <point x="365.78" y="208.19" type="curve" smooth="yes"/>
      <point x="365.78" y="124.98"/>
      <point x="307.19" y="61.3401"/>
      <point x="217.23" y="61.3401" type="curve" smooth="yes"/>
      <point x="152.49" y="61.3401"/>
      <point x="111.05" y="97.9801"/>
      <point x="94.13" y="143.14" type="curve"/>
      <point x="34" y="110.38" type="line"/>
      <point x="58.42" y="52.6201"/>
      <point x="128.23" y="-2.99992"/>
      <point x="217.23" y="-2.99992" type="curve" smooth="yes"/>
      <point x="347.82" y="-2.99992"/>
      <point x="435.78" y="93.8001"/>
      <point x="435.78" y="208.19" type="curve" smooth="yes"/>
      <point x="435.78" y="285.56"/>
      <point x="395.12" y="353.73"/>
      <point x="324.05" y="390.41" type="curve"/>
      <point x="370.4" y="422.48"/>
      <point x="394.68" y="473.23"/>
      <point x="394.68" y="529.49" type="curve" smooth="yes"/>
      <point x="394.68" y="624.58"/>
      <point x="315.32" y="703.93"/>
      <point x="217.23" y="703.93" type="curve" smooth="yes"/>
      <point x="127.48" y="703.93"/>
      <point x="60.6" y="637.69"/>
      <point x="44.89" y="571.41" type="curve"/>
    </contour>
  </outline>
</glyph>
<glyph name="five" format="1">
  <advance width="498"/>
  <unicode hex="0035"/>
  <outline>
    <contour>
      <point x="184.29" y="636" type="line"/>
      <point x="425.12" y="636" type="line"/>
      <point x="425.12" y="700" type="line"/>
      <point x="128.7" y="700" type="line"/>
      <point x="52.46" y="399.85" type="line"/>
      <point x="85.84" y="343.59" type="line"/>
      <point x="159.74" y="383.69"/>
      <point x="203.22" y="384"/>
      <point x="247.25" y="377.16" type="curve" smooth="yes"/>
      <point x="328.15" y="363.71"/>
      <point x="391.22" y="279.59"/>
      <point x="377.11" y="193.29" type="curve" smooth="yes"/>
      <point x="362.45" y="103.68"/>
      <point x="290.71" y="47.79"/>
      <point x="197.34" y="63.15" type="curve" smooth="yes"/>
      <point x="140.68" y="72.57"/>
      <point x="105.56" y="98"/>
      <point x="81.18" y="139.04" type="curve"/>
      <point x="21" y="106.36" type="line"/>
      <point x="52.85" y="52.74"/>
      <point x="106.93" y="13.13"/>
      <point x="185.98" y="1.52588e-05" type="curve" smooth="yes"/>
      <point x="320.65" y="-22"/>
      <point x="426.3" y="61.33"/>
      <point x="446.19" y="182.96" type="curve" smooth="yes"/>
      <point x="466.08" y="304.57"/>
      <point x="378.65" y="420.36"/>
      <point x="257.99" y="440.41" type="curve" smooth="yes"/>
      <point x="223.82" y="445.71"/>
      <point x="183.3" y="447.69"/>
      <point x="132.82" y="433.38" type="curve"/>
    </contour>
  </outline>
</glyph>
<glyph name="seven" format="1">
  <advance width="539"/>
  <unicode hex="0037"/>
  <outline>
    <contour>
      <point x="116.29" y="0" type="line"/>
      <point x="529.48" y="700" type="line"/>
      <point x="74.23" y="700" type="line"/>
      <point x="74.23" y="630" type="line"/>
      <point x="406.88" y="630" type="line"/>
      <point x="35" y="0" type="line"/>
    </contour>
  </outline>
</glyph>
<glyph name="eight" format="1">
  <advance width="497"/>
  <unicode hex="0038"/>
  <outline>
    <contour>
      <point x="381.29" y="382.45"/>
      <point x="400.14" y="401.84"/>
      <point x="413.46" y="425.09" type="curve" smooth="yes"/>
      <point x="465.58" y="516.08"/>
      <point x="435.53" y="626.71"/>
      <point x="343.14" y="679.62" type="curve" smooth="yes"/>
      <point x="253.54" y="730.94"/>
      <point x="134.78" y="698.68"/>
      <point x="84.2599" y="610.48" type="curve" smooth="yes"/>
      <point x="34.9799" y="524.95"/>
      <point x="58.89" y="422.05"/>
      <point x="138.62" y="366.08" type="curve"/>
      <point x="106.45" y="349.5"/>
      <point x="78.55" y="326.02"/>
      <point x="59.71" y="296" type="curve" smooth="yes"/>
      <point x="-1.00005" y="198.15"/>
      <point x="34.2299" y="78.0599"/>
      <point x="141.14" y="22.1899" type="curve" smooth="yes"/>
      <point x="243.71" y="-31.0001"/>
      <point x="378.27" y="1.77994"/>
      <point x="437.12" y="95.5299" type="curve" smooth="yes"/>
      <point x="497.83" y="192.25"/>
      <point x="463.33" y="310.79"/>
      <point x="359.28" y="367.42" type="curve"/>
    </contour>
    <contour>
      <point x="179.02" y="638.06"/>
      <point x="250.19" y="657.4"/>
      <point x="308.35" y="624.09" type="curve" smooth="yes"/>
      <point x="365.63" y="591.28"/>
      <point x="386.23" y="515.41"/>
      <point x="352.72" y="456.9" type="curve" smooth="yes"/>
      <point x="330.09" y="417.39"/>
      <point x="294.68" y="398.26"/>
      <point x="250.67" y="395.23" type="curve"/>
      <point x="224.8" y="397.31"/>
      <point x="209.03" y="400.22"/>
      <point x="189.37" y="411.48" type="curve" smooth="yes"/>
      <point x="132.06" y="444.31"/>
      <point x="111.27" y="520.14"/>
      <point x="144.96" y="578.6" type="curve" smooth="yes"/>
    </contour>
    <contour>
      <point x="336.37" y="63.5099"/>
      <point x="246.13" y="41.2199"/>
      <point x="173.49" y="78.9499" type="curve" smooth="yes"/>
      <point x="103.23" y="115.67"/>
      <point x="79.1899" y="197.98"/>
      <point x="119.07" y="262.08" type="curve" smooth="yes"/>
      <point x="146.86" y="306.37"/>
      <point x="193.67" y="327.87"/>
      <point x="249.77" y="331.06" type="curve"/>
      <point x="279.41" y="328.58"/>
      <point x="299.79" y="324.88"/>
      <point x="323.26" y="312.62" type="curve" smooth="yes"/>
      <point x="393.66" y="275.83"/>
      <point x="418.01" y="193.57"/>
      <point x="377.83" y="129.56" type="curve" smooth="yes"/>
    </contour>
  </outline>
</glyph>
<glyph name="nine" format="1">
  <advance width="451"/>
  <unicode hex="0039"/>
  <outline>
    <contour>
      <point x="77.02" y="0" type="line"/>
      <point x="157.58" y="0" type="line"/>
      <point x="389.58" y="400.26" type="line"/>
      <point x="393.75" y="407.21" type="line" smooth="yes"/>
      <point x="448.25" y="502.35"/>
      <point x="415.3" y="623.66"/>
      <point x="320.15" y="678.16" type="curve" smooth="yes"/>
      <point x="225" y="732.65"/>
      <point x="103.7" y="699.7"/>
      <point x="49.2" y="604.55" type="curve" smooth="yes"/>
      <point x="-5" y="509.4"/>
      <point x="27.66" y="388.1"/>
      <point x="122.81" y="333.61" type="curve" smooth="yes"/>
      <point x="164.82" y="309.54"/>
      <point x="211.93" y="302.53"/>
      <point x="256.14" y="310.4" type="curve"/>
    </contour>
    <contour>
      <point x="324.91" y="429.55" type="line"/>
      <point x="286.69" y="377.59"/>
      <point x="214.94" y="361.51"/>
      <point x="157.6" y="394.35" type="curve" smooth="yes"/>
      <point x="95.96" y="429.65"/>
      <point x="74.75" y="508.09"/>
      <point x="110" y="569.86" type="curve" smooth="yes"/>
      <point x="145.27" y="631.45"/>
      <point x="223.67" y="652.75"/>
      <point x="285.36" y="617.41" type="curve" smooth="yes"/>
      <point x="342.95" y="584.43"/>
      <point x="365.33" y="513.93"/>
      <point x="339.31" y="454.52" type="curve"/>
    </contour>
  </outline>
</glyph>
<glyph name="colon" format="1">
  <advance width="600"/>
  <unicode hex="003A"/>
  <outline>
    <contour>
      <point x="221.22" y="391.29"/>
      <point x="249.3" y="419.37"/>
      <point x="249.3" y="454.02" type="curve" smooth="yes"/>
      <point x="249.3" y="488.66"/>
      <point x="221.22" y="516.74"/>
      <point x="186.57" y="516.74" type="curve" smooth="yes"/>
      <point x="151.93" y="516.74"/>
      <point x="123.85" y="488.66"/>
      <point x="123.85" y="454.02" type="curve" smooth="yes"/>
      <point x="123.85" y="419.37"/>
      <point x="151.93" y="391.29"/>
      <point x="186.57" y="391.29" type="curve" smooth="yes"/>
    </contour>
    <contour>
      <point x="221.22" y="0"/>
      <point x="249.3" y="28.08"/>
      <point x="249.3" y="62.73" type="curve" smooth="yes"/>
      <point x="249.3" y="97.37"/>
      <point x="221.22" y="125.45"/>
      <point x="186.57" y="125.45" type="curve" smooth="yes"/>
      <point x="151.93" y="125.45"/>
      <point x="123.85" y="97.37"/>
      <point x="123.85" y="62.73" type="curve" smooth="yes"/>
      <point x="123.85" y="28.08"/>
      <point x="151.93" y="0"/>
      <point x="186.57" y="0" type="curve" smooth="yes"/>
    </contour>
  </outline>
</glyph>
<glyph name="less" format="1">
  <advance width="600"/>
  <unicode hex="003C"/>
  <outline>
    <contour>
      <point x="518.56" y="156.55" type="line"/>
      <point x="489.17" y="94.36" type="line"/>
      <point x="137.85" y="267.26" type="line"/>
      <point x="137.85" y="348.44" type="line"/>
      <point x="489.17" y="521.34" type="line"/>
      <point x="518.56" y="459.15" type="line"/>
      <point x="198.38" y="307.85" type="line"/>
    </contour>
  </outline>
</glyph>
<glyph name="greater" format="1">
  <advance width="600"/>
  <unicode hex="003E"/>
  <outline>
    <contour>
      <point x="137.31" y="94.36" type="line"/>
      <point x="488.63" y="267.26" type="line"/>
      <point x="488.63" y="348.44" type="line"/>
      <point x="137.31" y="521.34" type="line"/>
      <point x="107.92" y="459.15" type="line"/>
      <point x="428.1" y="307.85" type="line"/>
      <point x="107.92" y="156.55" type="line"/>
    </contour>
  </outline>
</glyph>
<glyph name="question" format="1">
  <advance width="517"/>
  <unicode hex="003F"/>
  <outline>
    <contour>
      <point x="150.66" y="241.3" type="line"/>
      <point x="220.66" y="241.3" type="line"/>
      <point x="220.66" y="347.8" type="line"/>
      <point x="301.13" y="377.75"/>
      <point x="388.01" y="427.84"/>
      <point x="396.86" y="533.45" type="curve" smooth="yes"/>
      <point x="405.36" y="634.83"/>
      <point x="323.5" y="713.75"/>
      <point x="214.49" y="707.94" type="curve" smooth="yes"/>
      <point x="101.35" y="701.92"/>
      <point x="66.86" y="618.6"/>
      <point x="66.86" y="618.6" type="curve"/>
      <point x="119.88" y="580.91" type="line"/>
      <point x="119.88" y="580.77"/>
      <point x="150.64" y="640.44"/>
      <point x="218.21" y="644.04" type="curve" smooth="yes"/>
      <point x="285.66" y="647.63"/>
      <point x="332.4" y="602.01"/>
      <point x="327.1" y="538.79" type="curve" smooth="yes"/>
      <point x="319.98" y="453.83"/>
      <point x="227.4" y="420.12"/>
      <point x="138.66" y="392.4" type="curve"/>
    </contour>
    <contour>
      <point x="228.22" y="-0.00012207"/>
      <point x="256.3" y="28.0799"/>
      <point x="256.3" y="62.7299" type="curve" smooth="yes"/>
      <point x="256.3" y="97.3699"/>
      <point x="228.22" y="125.45"/>
      <point x="193.57" y="125.45" type="curve" smooth="yes"/>
      <point x="158.93" y="125.45"/>
      <point x="130.85" y="97.3699"/>
      <point x="130.85" y="62.7299" type="curve" smooth="yes"/>
      <point x="130.85" y="28.0799"/>
      <point x="158.93" y="-0.00012207"/>
      <point x="193.57" y="-0.00012207" type="curve" smooth="yes"/>
    </contour>
  </outline>
</glyph>
<glyph name="at" format="1">
  <advance width="1110"/>
  <unicode hex="0040"/>
  <outline>
    <contour>
      <point x="788.3" y="-129" type="line"/>
      <point x="720.2" y="-170"/>
      <point x="646.74" y="-192"/>
      <point x="563.25" y="-192" type="curve" smooth="yes"/>
      <point x="323.9" y="-192"/>
      <point x="130" y="2.27"/>
      <point x="130" y="244.64" type="curve" smooth="yes"/>
      <point x="130" y="487"/>
      <point x="323.89" y="681.1"/>
      <point x="563.25" y="681.1" type="curve" smooth="yes"/>
      <point x="802.14" y="681.1"/>
      <point x="976.5" y="499.48"/>
      <point x="976.5" y="256.74" type="curve" smooth="yes"/>
      <point x="976.5" y="131.28"/>
      <point x="925.91" y="46.71"/>
      <point x="862.42" y="38.6" type="curve" smooth="yes"/>
      <point x="798.03" y="30.37"/>
      <point x="767.25" y="54.43"/>
      <point x="764.65" y="138.2" type="curve"/>
      <point x="764.65" y="314.08" type="line" smooth="yes"/>
      <point x="764.65" y="423.69"/>
      <point x="680.87" y="493.88"/>
      <point x="577.62" y="493.88" type="curve" smooth="yes"/>
      <point x="488.54" y="493.88"/>
      <point x="433.14" y="448.52"/>
      <point x="407.65" y="421.46" type="curve"/>
      <point x="456.53" y="378.75" type="line"/>
      <point x="483.04" y="402.13"/>
      <point x="524.93" y="429.88"/>
      <point x="577.62" y="429.88" type="curve" smooth="yes"/>
      <point x="646.01" y="429.88"/>
      <point x="694.65" y="387.86"/>
      <point x="694.65" y="314.08" type="curve" smooth="yes"/>
      <point x="694.65" y="305.59" type="line"/>
      <point x="694.47" y="305.59" type="line"/>
      <point x="694.47" y="276.87" type="line"/>
      <point x="663.48" y="283.93"/>
      <point x="626.54" y="287.55"/>
      <point x="593.96" y="287.55" type="curve" smooth="yes"/>
      <point x="478.01" y="287.55"/>
      <point x="371" y="251.59"/>
      <point x="371" y="121.82" type="curve" smooth="yes"/>
      <point x="371" y="56.4399"/>
      <point x="421.41" y="-21.0001"/>
      <point x="531.53" y="-21.0001" type="curve" smooth="yes"/>
      <point x="596.12" y="-21.0001"/>
      <point x="660.83" y="7.85994"/>
      <point x="705.47" y="67.6099" type="curve"/>
      <point x="728.39" y="-5.65005"/>
      <point x="786.3" y="-35.6401"/>
      <point x="871.29" y="-25.0001" type="curve" smooth="yes"/>
      <point x="978.84" y="-11.0001"/>
      <point x="1046.5" y="107.37"/>
      <point x="1046.5" y="256.74" type="curve" smooth="yes"/>
      <point x="1046.5" y="531.48"/>
      <point x="841.78" y="745.1"/>
      <point x="563.25" y="745.1" type="curve" smooth="yes"/>
      <point x="285.1" y="745.1"/>
      <point x="59.9999" y="519.75"/>
      <point x="59.9999" y="244.64" type="curve" smooth="yes"/>
      <point x="59.9999" y="-30.0001"/>
      <point x="285.09" y="-256"/>
      <point x="563.25" y="-256" type="curve" smooth="yes"/>
      <point x="657.87" y="-256"/>
      <point x="750.89" y="-228"/>
      <point x="824.6" y="-183" type="curve"/>
    </contour>
    <contour>
      <point x="468.96" y="42.5999"/>
      <point x="441" y="81.4099"/>
      <point x="441" y="121.82" type="curve" smooth="yes"/>
      <point x="441" y="205.29"/>
      <point x="503.63" y="230.85"/>
      <point x="607.96" y="230.85" type="curve" smooth="yes"/>
      <point x="641.07" y="230.85"/>
      <point x="671.39" y="226.83"/>
      <point x="694.47" y="222.5" type="curve"/>
      <point x="694.47" y="211.41" type="line" smooth="yes"/>
      <point x="690.93" y="103.76"/>
      <point x="634.98" y="42.5999"/>
      <point x="531.53" y="42.5999" type="curve" smooth="yes"/>
    </contour>
  </outline>
</glyph>
<glyph name="C" format="1">
  <advance width="656"/>
  <unicode hex="0043"/>
  <outline>
    <contour>
      <point x="577.1" y="175.45" type="line"/>
      <point x="525.4" y="103.33"/>
      <point x="453.09" y="62"/>
      <point x="368.81" y="62" type="curve" smooth="yes"/>
      <point x="226.71" y="62"/>
      <point x="106" y="189.3"/>
      <point x="106" y="349.96" type="curve" smooth="yes"/>
      <point x="106" y="497.35"/>
      <point x="213.89" y="637.49"/>
      <point x="368.81" y="637.49" type="curve" smooth="yes"/>
      <point x="447.28" y="637.49"/>
      <point x="515.33" y="601.77"/>
      <point x="566.98" y="538" type="curve"/>
      <point x="621.38" y="578.28" type="line"/>
      <point x="560.38" y="653.58"/>
      <point x="470" y="701.49"/>
      <point x="368.81" y="701.49" type="curve" smooth="yes"/>
      <point x="167.38" y="701.49"/>
      <point x="36" y="526.91"/>
      <point x="36" y="349.96" type="curve" smooth="yes"/>
      <point x="36" y="155.81"/>
      <point x="184.99" y="-2.00003"/>
      <point x="368.81" y="-2.00003" type="curve" smooth="yes"/>
      <point x="477.23" y="-2.00003"/>
      <point x="573.23" y="53.41"/>
      <point x="633.99" y="138.16" type="curve"/>
    </contour>
  </outline>
</glyph>
<glyph name="D" format="1">
  <advance width="627"/>
  <unicode hex="0044"/>
  <outline>
    <contour>
      <point x="86" y="700.32" type="line"/>
      <point x="86" y="0" type="line"/>
      <point x="228.49" y="0" type="line" smooth="yes"/>
      <point x="464.81" y="0"/>
      <point x="579.4" y="149.13"/>
      <point x="579.4" y="350.33" type="curve" smooth="yes"/>
      <point x="579.4" y="552.96"/>
      <point x="472.36" y="700.32"/>
      <point x="222.77" y="700.32" type="curve" smooth="yes"/>
    </contour>
    <contour>
      <point x="156" y="636.32" type="line"/>
      <point x="222.77" y="636.32" type="line" smooth="yes"/>
      <point x="426.99" y="636.32"/>
      <point x="509.4" y="525.86"/>
      <point x="509.4" y="350.33" type="curve" smooth="yes"/>
      <point x="509.4" y="177.15"/>
      <point x="420.62" y="64"/>
      <point x="228.49" y="64" type="curve" smooth="yes"/>
      <point x="156" y="64" type="line"/>
    </contour>
  </outline>
</glyph>
<glyph name="G" format="1">
  <advance width="670"/>
  <unicode hex="0047"/>
  <outline>
    <contour>
      <point x="375.21" y="351.04" type="line"/>
      <point x="375.21" y="287.04" type="line"/>
      <point x="564.31" y="287.04" type="line"/>
      <point x="564.31" y="157.99" type="line"/>
      <point x="509.61" y="91.28"/>
      <point x="440.5" y="62"/>
      <point x="368.98" y="62" type="curve" smooth="yes"/>
      <point x="226.74" y="62"/>
      <point x="106" y="189.03"/>
      <point x="106" y="349.74" type="curve" smooth="yes"/>
      <point x="106" y="510.42"/>
      <point x="226.74" y="637.44"/>
      <point x="368.98" y="637.44" type="curve" smooth="yes"/>
      <point x="435.71" y="637.44"/>
      <point x="495.38" y="611.05"/>
      <point x="545.06" y="562.76" type="curve"/>
      <point x="593.85" y="608.65" type="line"/>
      <point x="534.65" y="666.2"/>
      <point x="455.8" y="701.44"/>
      <point x="368.98" y="701.44" type="curve" smooth="yes"/>
      <point x="185.07" y="701.44"/>
      <point x="35.9999" y="543.96"/>
      <point x="35.9999" y="349.74" type="curve" smooth="yes"/>
      <point x="35.9999" y="155.48"/>
      <point x="185.07" y="-1.99997"/>
      <point x="368.98" y="-1.99997" type="curve" smooth="yes"/>
      <point x="466.69" y="-1.99997"/>
      <point x="566.64" y="43.44"/>
      <point x="634.31" y="137.8" type="curve"/>
      <point x="634.31" y="351.04" type="line"/>
    </contour>
  </outline>
</glyph>
<glyph name="H" format="1">
  <advance width="721"/>
  <unicode hex="0048"/>
  <outline>
    <contour>
      <point x="634.91" y="700.07" type="line"/>
      <point x="564.91" y="700.07" type="line"/>
      <point x="564.91" y="385.69" type="line"/>
      <point x="156" y="385.69" type="line"/>
      <point x="156" y="700.07" type="line"/>
      <point x="86" y="700.07" type="line"/>
      <point x="86" y="0.0300293" type="line"/>
      <point x="156" y="0.0300293" type="line"/>
      <point x="156" y="321.69" type="line"/>
      <point x="564.91" y="321.69" type="line"/>
      <point x="564.91" y="3.05176e-05" type="line"/>
      <point x="634.91" y="3.05176e-05" type="line"/>
    </contour>
  </outline>
</glyph>
<glyph name="K" format="1">
  <advance width="600"/>
  <unicode hex="004B"/>
  <outline>
    <contour>
      <point x="272.59" y="403.31" type="line"/>
      <point x="589.94" y="700" type="line"/>
      <point x="492.13" y="700" type="line"/>
      <point x="187.15" y="414.87" type="line"/>
      <point x="181.18" y="410.66" type="line"/>
      <point x="181.79" y="409.87" type="line"/>
      <point x="156.88" y="386.58" type="line"/>
      <point x="156.88" y="701.74" type="line"/>
      <point x="86.88" y="701.74" type="line"/>
      <point x="86.88" y="321.13" type="line"/>
      <point x="86" y="320.31" type="line"/>
      <point x="86.88" y="319.45" type="line"/>
      <point x="86.88" y="0" type="line"/>
      <point x="156.88" y="0" type="line"/>
      <point x="156.88" y="295.13" type="line"/>
      <point x="222.8" y="356.76" type="line"/>
      <point x="498.28" y="0" type="line"/>
      <point x="585.01" y="0" type="line"/>
    </contour>
  </outline>
</glyph>
<glyph name="L" format="1">
  <advance width="425"/>
  <unicode hex="004C"/>
  <outline>
    <contour>
      <point x="410.08" y="0" type="line"/>
      <point x="410.08" y="64" type="line"/>
      <point x="156" y="64" type="line"/>
      <point x="156" y="700.07" type="line"/>
      <point x="86" y="700.07" type="line"/>
      <point x="86" y="0" type="line"/>
    </contour>
  </outline>
</glyph>
<glyph name="N" format="1">
  <advance width="725"/>
  <unicode hex="004E"/>
  <outline>
    <contour>
      <point x="638.5" y="0" type="line"/>
      <point x="638.5" y="700" type="line"/>
      <point x="568.23" y="700" type="line"/>
      <point x="568.23" y="111.04" type="line"/>
      <point x="163.5" y="700" type="line"/>
      <point x="86" y="700" type="line"/>
      <point x="86" y="0.309998" type="line"/>
      <point x="155.73" y="0.309998" type="line"/>
      <point x="155.73" y="590.82" type="line"/>
      <point x="562.2" y="0" type="line"/>
    </contour>
  </outline>
</glyph>
<glyph name="P" format="1">
  <advance width="571"/>
  <unicode hex="0050"/>
  <outline>
    <contour>
      <point x="86" y="706.66" type="line"/>
      <point x="86" y="0" type="line"/>
      <point x="156" y="0" type="line"/>
      <point x="156" y="321.65" type="line"/>
      <point x="342.62" y="321.65" type="line" smooth="yes"/>
      <point x="448.51" y="321.65"/>
      <point x="535.74" y="408.87"/>
      <point x="535.74" y="514.14" type="curve" smooth="yes"/>
      <point x="535.74" y="566.78"/>
      <point x="513.93" y="615.52"/>
      <point x="479.2" y="650.25" type="curve" smooth="yes"/>
      <point x="444.81" y="684.64"/>
      <point x="395.64" y="706.66"/>
      <point x="342.62" y="706.66" type="curve" smooth="yes"/>
    </contour>
    <contour>
      <point x="156" y="385.65" type="line"/>
      <point x="156" y="642.66" type="line"/>
      <point x="342.62" y="642.66" type="line" smooth="yes"/>
      <point x="377.41" y="642.66"/>
      <point x="403.68" y="631.02"/>
      <point x="429.7" y="605" type="curve" smooth="yes"/>
      <point x="451.04" y="583.66"/>
      <point x="465.74" y="550.29"/>
      <point x="465.74" y="514.14" type="curve" smooth="yes"/>
      <point x="465.74" y="441.38"/>
      <point x="410.03" y="385.65"/>
      <point x="342.62" y="385.65" type="curve" smooth="yes"/>
    </contour>
  </outline>
</glyph>
<glyph name="Q" format="1">
  <advance width="790"/>
  <unicode hex="0051"/>
  <outline>
    <contour>
      <point x="658.71" y="0" type="line"/>
      <point x="755.54" y="0" type="line"/>
      <point x="640.57" y="106.95" type="line"/>
      <point x="698.87" y="166.35"/>
      <point x="737.5" y="249.02"/>
      <point x="737.5" y="351.22" type="curve" smooth="yes"/>
      <point x="737.5" y="545.21"/>
      <point x="580.27" y="702.48"/>
      <point x="386.26" y="702.48" type="curve" smooth="yes"/>
      <point x="188.63" y="702.48"/>
      <point x="35.0001" y="542.3"/>
      <point x="35.0001" y="351.22" type="curve" smooth="yes"/>
      <point x="35.0001" y="157.22"/>
      <point x="192.25" y="-3.05176e-05"/>
      <point x="386.26" y="-3.05176e-05" type="curve" smooth="yes"/>
      <point x="456.59" y="-3.05176e-05"/>
      <point x="528.9" y="22.25"/>
      <point x="589.49" y="64.04" type="curve"/>
    </contour>
    <contour>
      <point x="442.87" y="290.86" type="line"/>
      <point x="344.36" y="290.86" type="line"/>
      <point x="539.63" y="110.18" type="line"/>
      <point x="493.13" y="80.03"/>
      <point x="439.01" y="64"/>
      <point x="386.26" y="64" type="curve" smooth="yes"/>
      <point x="232.78" y="64"/>
      <point x="105" y="191.77"/>
      <point x="105" y="351.22" type="curve" smooth="yes"/>
      <point x="105" y="508.53"/>
      <point x="230.04" y="638.48"/>
      <point x="386.26" y="638.48" type="curve" smooth="yes"/>
      <point x="539.73" y="638.48"/>
      <point x="667.5" y="510.68"/>
      <point x="667.5" y="351.22" type="curve" smooth="yes"/>
      <point x="667.5" y="268.62"/>
      <point x="637.12" y="201.49"/>
      <point x="591.12" y="152.95" type="curve"/>
    </contour>
  </outline>
</glyph>
<glyph name="S" format="1">
  <advance width="491"/>
  <unicode hex="0053"/>
  <outline>
    <contour>
      <point x="425.23" y="625.16" type="line"/>
      <point x="398.07" y="651.91"/>
      <point x="341.25" y="702.39"/>
      <point x="242.67" y="702.39" type="curve" smooth="yes"/>
      <point x="145.05" y="702.39"/>
      <point x="56.58" y="630.05"/>
      <point x="56.58" y="528.82" type="curve" smooth="yes"/>
      <point x="56.58" y="420.87"/>
      <point x="150.97" y="378.35"/>
      <point x="230.12" y="345.85" type="curve" smooth="yes"/>
      <point x="316.97" y="310.17"/>
      <point x="395.69" y="288.26"/>
      <point x="395.71" y="184.3" type="curve" smooth="yes"/>
      <point x="395.73" y="101.09"/>
      <point x="327.91" y="62.2"/>
      <point x="235.83" y="62.2" type="curve" smooth="yes"/>
      <point x="160.99" y="62.2"/>
      <point x="107.65" y="97.19"/>
      <point x="74.1" y="134.58" type="curve"/>
      <point x="22" y="91.84" type="line"/>
      <point x="60.59" y="48.84"/>
      <point x="136.13" y="-1.99997"/>
      <point x="235.83" y="-1.99997" type="curve" smooth="yes"/>
      <point x="352.64" y="-1.99997"/>
      <point x="465.7" y="58.46"/>
      <point x="465.71" y="184.3" type="curve"/>
      <point x="465.69" y="326.63"/>
      <point x="366.52" y="359.94"/>
      <point x="256.71" y="405.05" type="curve" smooth="yes"/>
      <point x="177.8" y="437.46"/>
      <point x="126.58" y="464.74"/>
      <point x="126.58" y="528.82" type="curve"/>
      <point x="126.57" y="593.79"/>
      <point x="179.4" y="638.39"/>
      <point x="242.67" y="638.39" type="curve" smooth="yes"/>
      <point x="312.94" y="638.39"/>
      <point x="348.04" y="607.2"/>
      <point x="376.12" y="579.55" type="curve"/>
    </contour>
  </outline>
</glyph>
<glyph name="W" format="1">
  <advance width="963"/>
  <unicode hex="0057"/>
  <outline>
    <contour>
      <point x="724.03" y="120.44" type="line"/>
      <point x="518.33" y="700" type="line"/>
      <point x="444.12" y="700" type="line"/>
      <point x="238.45" y="120.53" type="line"/>
      <point x="94.76" y="700" type="line"/>
      <point x="23" y="700" type="line"/>
      <point x="196.57" y="0" type="line"/>
      <point x="269.23" y="0" type="line"/>
      <point x="481.22" y="597.28" type="line"/>
      <point x="693.21" y="0" type="line"/>
      <point x="765.88" y="0" type="line"/>
      <point x="939.79" y="700" type="line"/>
      <point x="868.02" y="700" type="line"/>
    </contour>
  </outline>
</glyph>
<glyph name="backslash" format="1">
  <advance width="600"/>
  <unicode hex="005C"/>
  <outline>
    <contour>
      <point x="342.1" y="-109" type="line"/>
      <point x="407.83" y="-87" type="line"/>
      <point x="115.23" y="711.02" type="line"/>
      <point x="49.51" y="688.98" type="line"/>
    </contour>
  </outline>
</glyph>
<glyph name="bracketright" format="1">
  <advance width="330"/>
  <unicode hex="005D"/>
  <outline>
    <contour>
      <point x="220.06" y="717.62" type="line"/>
      <point x="75" y="717.62" type="line"/>
      <point x="75" y="781.62" type="line"/>
      <point x="290.06" y="781.62" type="line"/>
      <point x="290.06" y="-142" type="line"/>
      <point x="75" y="-142" type="line"/>
      <point x="75" y="-78" type="line"/>
      <point x="220.06" y="-78" type="line"/>
    </contour>
  </outline>
</glyph>
<glyph name="asciicircum" format="1">
  <advance width="600"/>
  <unicode hex="005E"/>
  <outline>
    <contour>
      <point x="404.14" y="394.62" type="line"/>
      <point x="465.78" y="424.94" type="line"/>
      <point x="274.41" y="780.75" type="line"/>
      <point x="83.03" y="424.94" type="line"/>
      <point x="144.68" y="394.62" type="line"/>
      <point x="274.41" y="635.81" type="line"/>
    </contour>
  </outline>
</glyph>
<glyph name="underscore" format="1">
  <advance width="600"/>
  <unicode hex="005F"/>
  <outline>
    <contour>
      <point x="34.74" y="-63" type="line"/>
      <point x="34.74" y="-127" type="line"/>
      <point x="548.37" y="-127" type="line"/>
      <point x="548.37" y="-63" type="line"/>
    </contour>
  </outline>
</glyph>
<glyph name="grave" format="1">
  <advance width="600"/>
  <unicode hex="0060"/>
  <outline>
    <contour>
      <point x="142.04" y="633.53" type="line"/>
      <point x="345.15" y="554" type="line"/>
      <point x="360.91" y="614.05" type="line"/>
      <point x="164.17" y="708.42" type="line"/>
    </contour>
  </outline>
</glyph>
<glyph name="c" format="1">
  <advance width="515"/>
  <unicode hex="0063"/>
  <outline>
    <contour>
      <point x="443.5" y="119.08" type="line"/>
      <point x="405.03" y="76.02"/>
      <point x="356.36" y="52.67"/>
      <point x="299.9" y="52.67" type="curve" smooth="yes"/>
      <point x="195.22" y="52.67"/>
      <point x="107" y="141.19"/>
      <point x="107" y="252.53" type="curve" smooth="yes"/>
      <point x="107" y="359.47"/>
      <point x="192.85" y="452.39"/>
      <point x="299.9" y="452.39" type="curve" smooth="yes"/>
      <point x="351.02" y="452.39"/>
      <point x="396.17" y="432.85"/>
      <point x="433.76" y="396.43" type="curve"/>
      <point x="482.47" y="442.4" type="line"/>
      <point x="435.18" y="488.21"/>
      <point x="370.82" y="516.39"/>
      <point x="299.9" y="516.39" type="curve" smooth="yes"/>
      <point x="150.54" y="516.39"/>
      <point x="37" y="392.3"/>
      <point x="37" y="252.53" type="curve" smooth="yes"/>
      <point x="37" y="106.8"/>
      <point x="154.71" y="-11"/>
      <point x="299.9" y="-11" type="curve" smooth="yes"/>
      <point x="377.68" y="-11"/>
      <point x="447.56" y="22.56"/>
      <point x="495.7" y="76.44" type="curve"/>
    </contour>
  </outline>
</glyph>
<glyph name="d" format="1">
  <advance width="564"/>
  <unicode hex="0064"/>
  <outline>
    <contour>
      <point x="519.16" y="228.37" type="line"/>
      <point x="518.82" y="700" type="line"/>
      <point x="448.82" y="700" type="line"/>
      <point x="448.82" y="453.43" type="line"/>
      <point x="413.46" y="489.4"/>
      <point x="362.46" y="517.55"/>
      <point x="292.43" y="517.55" type="curve" smooth="yes"/>
      <point x="151.37" y="517.55"/>
      <point x="37.0001" y="399.46"/>
      <point x="37.0001" y="253.78" type="curve" smooth="yes"/>
      <point x="37.0001" y="108.1"/>
      <point x="144.89" y="-6"/>
      <point x="285.95" y="-6" type="curve" smooth="yes"/>
      <point x="354.9" y="-6"/>
      <point x="409.63" y="18.43"/>
      <point x="448.82" y="58.94" type="curve"/>
      <point x="448.82" y="0.109985" type="line"/>
      <point x="518.82" y="0.109985" type="line"/>
      <point x="518.82" y="224.51" type="line"/>
    </contour>
    <contour>
      <point x="448.82" y="158.18" type="line"/>
      <point x="428.41" y="107.42"/>
      <point x="371.44" y="58"/>
      <point x="285.95" y="58" type="curve" smooth="yes"/>
      <point x="186.82" y="58"/>
      <point x="107" y="141.25"/>
      <point x="107" y="253.78" type="curve" smooth="yes"/>
      <point x="107" y="365.59"/>
      <point x="192.47" y="453.56"/>
      <point x="292.43" y="453.56" type="curve" smooth="yes"/>
      <point x="380.36" y="453.56"/>
      <point x="431.71" y="403.39"/>
      <point x="448.82" y="355.97" type="curve"/>
    </contour>
  </outline>
</glyph>
<glyph name="g" format="1">
  <advance width="561"/>
  <unicode hex="0067"/>
  <outline>
    <contour>
      <point x="510.78" y="436" type="line"/>
      <point x="522.27" y="500" type="line"/>
      <point x="358.23" y="489.04" type="line"/>
      <point x="332.62" y="502.6"/>
      <point x="303.4" y="510.29"/>
      <point x="272.43" y="510.29" type="curve" smooth="yes"/>
      <point x="171.71" y="510.29"/>
      <point x="89.5101" y="428.97"/>
      <point x="89.5101" y="328.65" type="curve" smooth="yes"/>
      <point x="89.5101" y="283.99"/>
      <point x="105.8" y="243.09"/>
      <point x="132.76" y="211.46" type="curve"/>
      <point x="93.0901" y="205.69"/>
      <point x="55.9101" y="183.82"/>
      <point x="43.2201" y="133.6" type="curve" smooth="yes"/>
      <point x="31.2901" y="89.19"/>
      <point x="41.8201" y="29.29"/>
      <point x="112.4" y="-3.00003" type="curve"/>
      <point x="62.5001" y="-35"/>
      <point x="32.5001" y="-90"/>
      <point x="32.5001" y="-145" type="curve" smooth="yes"/>
      <point x="32.5001" y="-224"/>
      <point x="94.8301" y="-301"/>
      <point x="249.72" y="-301" type="curve" smooth="yes"/>
      <point x="443.74" y="-301"/>
      <point x="525.43" y="-209"/>
      <point x="525.43" y="-103" type="curve" smooth="yes"/>
      <point x="525.43" y="30.03"/>
      <point x="390.54" y="43.94"/>
      <point x="284.37" y="43.94" type="curve" smooth="yes"/>
      <point x="256.29" y="43.94"/>
      <point x="230.22" y="42.97"/>
      <point x="209.18" y="42.97" type="curve" smooth="yes"/>
      <point x="137.7" y="42.97"/>
      <point x="109.01" y="72.94"/>
      <point x="109.01" y="104.49" type="curve" smooth="yes"/>
      <point x="109.01" y="158.94"/>
      <point x="170.59" y="171.13"/>
      <point x="196.37" y="163.45" type="curve"/>
      <point x="219.55" y="152.88"/>
      <point x="245.32" y="146.99"/>
      <point x="272.43" y="146.99" type="curve" smooth="yes"/>
      <point x="373.16" y="146.99"/>
      <point x="455.36" y="228.32"/>
      <point x="455.36" y="328.65" type="curve" smooth="yes"/>
      <point x="455.36" y="368.81"/>
      <point x="442.19" y="405.93"/>
      <point x="419.92" y="436" type="curve"/>
    </contour>
    <contour>
      <point x="333.14" y="446.29"/>
      <point x="385.36" y="394.49"/>
      <point x="385.36" y="328.65" type="curve" smooth="yes"/>
      <point x="385.36" y="262.8"/>
      <point x="333.14" y="210.99"/>
      <point x="272.43" y="210.99" type="curve" smooth="yes"/>
      <point x="211.73" y="210.99"/>
      <point x="159.51" y="262.8"/>
      <point x="159.51" y="328.65" type="curve" smooth="yes"/>
      <point x="159.51" y="394.49"/>
      <point x="211.73" y="446.29"/>
      <point x="272.43" y="446.29" type="curve" smooth="yes"/>
    </contour>
    <contour>
      <point x="141.24" y="-237"/>
      <point x="98.5601" y="-178"/>
      <point x="99.6301" y="-120" type="curve" smooth="yes"/>
      <point x="100.44" y="-76"/>
      <point x="125.97" y="-34"/>
      <point x="166.22" y="-18" type="curve"/>
      <point x="201.48" y="-23"/>
      <point x="244.86" y="-20"/>
      <point x="297.41" y="-20" type="curve" smooth="yes"/>
      <point x="380.01" y="-20"/>
      <point x="455.12" y="-30"/>
      <point x="455.12" y="-107" type="curve" smooth="yes"/>
      <point x="455.12" y="-197"/>
      <point x="371.38" y="-237"/>
      <point x="251.2" y="-237" type="curve" smooth="yes"/>
    </contour>
  </outline>
</glyph>
<glyph name="h" format="1">
  <advance width="561"/>
  <unicode hex="0068"/>
  <outline>
    <contour>
      <point x="145.96" y="700" type="line"/>
      <point x="75.96" y="700" type="line"/>
      <point x="75.96" y="0" type="line"/>
      <point x="145.96" y="0" type="line"/>
      <point x="145.96" y="351.5" type="line"/>
      <point x="164.35" y="401.54"/>
      <point x="211.53" y="449.77"/>
      <point x="279.93" y="449.77" type="curve" smooth="yes"/>
      <point x="366.82" y="449.77"/>
      <point x="424.65" y="395.28"/>
      <point x="424.65" y="284.98" type="curve" smooth="yes"/>
      <point x="424.65" y="0" type="line"/>
      <point x="494.65" y="0" type="line"/>
      <point x="494.65" y="284.98" type="line" smooth="yes"/>
      <point x="494.65" y="427.64"/>
      <point x="405.62" y="513.37"/>
      <point x="279.93" y="513.37" type="curve" smooth="yes"/>
      <point x="227.44" y="513.37"/>
      <point x="181.21" y="490.72"/>
      <point x="145.96" y="452.47" type="curve"/>
    </contour>
  </outline>
</glyph>
<glyph name="j" format="1">
  <advance width="224"/>
  <unicode hex="006A"/>
  <outline>
    <contour>
      <point x="74.98" y="628.54"/>
      <point x="96.44" y="650"/>
      <point x="121.47" y="650" type="curve" smooth="yes"/>
      <point x="146.49" y="650"/>
      <point x="167.96" y="628.53"/>
      <point x="167.96" y="603.5" type="curve" smooth="yes"/>
      <point x="167.96" y="578.48"/>
      <point x="146.5" y="557.01"/>
      <point x="121.47" y="557.01" type="curve" smooth="yes"/>
      <point x="96.44" y="557.01"/>
      <point x="74.98" y="578.47"/>
      <point x="74.98" y="603.5" type="curve" smooth="yes"/>
    </contour>
    <contour>
      <point x="155.66" y="507.38" type="line"/>
      <point x="85.65" y="507.38" type="line"/>
      <point x="85.65" y="-9" type="line" smooth="yes"/>
      <point x="85.65" y="-95"/>
      <point x="23.14" y="-140"/>
      <point x="-50" y="-140" type="curve"/>
      <point x="-50" y="-204" type="line"/>
      <point x="57.54" y="-204"/>
      <point x="155.66" y="-136"/>
      <point x="155.66" y="-9" type="curve" smooth="yes"/>
    </contour>
  </outline>
</glyph>
<glyph name="l" format="1">
  <advance width="224"/>
  <unicode hex="006C"/>
  <outline>
    <contour>
      <point x="76" y="0" type="line"/>
      <point x="146" y="0" type="line"/>
      <point x="146" y="700" type="line"/>
      <point x="76" y="700" type="line"/>
    </contour>
  </outline>
</glyph>
<glyph name="n" format="1">
  <advance width="561"/>
  <unicode hex="006E"/>
  <outline>
    <contour>
      <point x="146" y="507.33" type="line"/>
      <point x="76" y="507.33" type="line"/>
      <point x="76" y="0" type="line"/>
      <point x="146" y="0" type="line"/>
      <point x="146" y="325.35" type="line"/>
      <point x="155.51" y="383.22"/>
      <point x="206.57" y="449.77"/>
      <point x="286.93" y="449.77" type="curve" smooth="yes"/>
      <point x="373.82" y="449.77"/>
      <point x="431.65" y="391.28"/>
      <point x="431.65" y="280.98" type="curve" smooth="yes"/>
      <point x="431.65" y="6.10352e-05" type="line"/>
      <point x="501.65" y="6.10352e-05" type="line"/>
      <point x="501.65" y="280.98" type="line" smooth="yes"/>
      <point x="501.65" y="423.64"/>
      <point x="412.62" y="513.37"/>
      <point x="286.93" y="513.37" type="curve" smooth="yes"/>
      <point x="230.91" y="513.37"/>
      <point x="182.03" y="487.26"/>
      <point x="146" y="444.27" type="curve"/>
    </contour>
  </outline>
</glyph>
<glyph name="o" format="1">
  <advance width="591"/>
  <unicode hex="006F"/>
  <outline>
    <contour>
      <point x="552.96" y="401.92"/>
      <point x="437.46" y="517.84"/>
      <point x="294.98" y="517.84" type="curve" smooth="yes"/>
      <point x="153.64" y="517.84"/>
      <point x="37" y="402.48"/>
      <point x="37" y="258.92" type="curve" smooth="yes"/>
      <point x="37" y="115.93"/>
      <point x="152.5" y="-1.52588e-05"/>
      <point x="294.98" y="-1.52588e-05" type="curve" smooth="yes"/>
      <point x="438.22" y="-1.52588e-05"/>
      <point x="552.96" y="117.29"/>
      <point x="552.96" y="258.92" type="curve" smooth="yes"/>
    </contour>
    <contour>
      <point x="482.96" y="151.34"/>
      <point x="397.32" y="64"/>
      <point x="294.98" y="64" type="curve" smooth="yes"/>
      <point x="193.01" y="64"/>
      <point x="107" y="150.31"/>
      <point x="107" y="258.92" type="curve" smooth="yes"/>
      <point x="107" y="367.82"/>
      <point x="193.84" y="453.85"/>
      <point x="294.98" y="453.85" type="curve" smooth="yes"/>
      <point x="396.95" y="453.85"/>
      <point x="482.96" y="367.54"/>
      <point x="482.96" y="258.92" type="curve" smooth="yes"/>
    </contour>
  </outline>
</glyph>
<glyph name="p" format="1">
  <advance width="596"/>
  <unicode hex="0070"/>
  <outline>
    <contour>
      <point x="145" y="500" type="line"/>
      <point x="75" y="500" type="line"/>
      <point x="75" y="-200" type="line"/>
      <point x="145" y="-200" type="line"/>
      <point x="145" y="58.26" type="line"/>
      <point x="184.14" y="18.16"/>
      <point x="238.64" y="-6"/>
      <point x="307.21" y="-6" type="curve" smooth="yes"/>
      <point x="448.27" y="-6"/>
      <point x="556.15" y="108.1"/>
      <point x="556.15" y="253.78" type="curve" smooth="yes"/>
      <point x="556.15" y="399.46"/>
      <point x="441.79" y="517.55"/>
      <point x="300.72" y="517.55" type="curve" smooth="yes"/>
      <point x="231.13" y="517.55"/>
      <point x="180.34" y="489.75"/>
      <point x="145" y="454.1" type="curve"/>
    </contour>
    <contour>
      <point x="145" y="357.78" type="line"/>
      <point x="162.76" y="404.66"/>
      <point x="213.91" y="453.56"/>
      <point x="300.72" y="453.56" type="curve" smooth="yes"/>
      <point x="400.69" y="453.56"/>
      <point x="486.15" y="365.59"/>
      <point x="486.15" y="253.78" type="curve" smooth="yes"/>
      <point x="486.15" y="141.25"/>
      <point x="406.33" y="58"/>
      <point x="307.21" y="58" type="curve" smooth="yes"/>
      <point x="222.63" y="58"/>
      <point x="165.96" y="106.37"/>
      <point x="145" y="156.56" type="curve"/>
    </contour>
  </outline>
</glyph>
<glyph name="q" format="1">
  <advance width="596"/>
  <unicode hex="0071"/>
  <outline>
    <contour>
      <point x="448.94" y="500" type="line"/>
      <point x="448.94" y="454.1" type="line"/>
      <point x="413.61" y="489.75"/>
      <point x="362.82" y="517.55"/>
      <point x="293.22" y="517.55" type="curve" smooth="yes"/>
      <point x="152.15" y="517.55"/>
      <point x="37.79" y="399.46"/>
      <point x="37.79" y="253.78" type="curve" smooth="yes"/>
      <point x="37.79" y="108.1"/>
      <point x="145.67" y="-6"/>
      <point x="286.73" y="-6" type="curve" smooth="yes"/>
      <point x="355.3" y="-6"/>
      <point x="409.8" y="18.16"/>
      <point x="448.94" y="58.26" type="curve"/>
      <point x="448.94" y="-200" type="line"/>
      <point x="518.94" y="-200" type="line"/>
      <point x="518.94" y="500" type="line"/>
    </contour>
    <contour>
      <point x="448.94" y="156.56" type="line"/>
      <point x="427.99" y="106.37"/>
      <point x="371.31" y="58"/>
      <point x="286.73" y="58" type="curve" smooth="yes"/>
      <point x="187.61" y="58"/>
      <point x="107.79" y="141.25"/>
      <point x="107.79" y="253.78" type="curve" smooth="yes"/>
      <point x="107.79" y="365.59"/>
      <point x="193.25" y="453.56"/>
      <point x="293.22" y="453.56" type="curve" smooth="yes"/>
      <point x="380.04" y="453.56"/>
      <point x="431.18" y="404.66"/>
      <point x="448.94" y="357.78" type="curve"/>
    </contour>
  </outline>
</glyph>
<glyph name="r" format="1">
  <advance width="355"/>
  <unicode hex="0072"/>
  <outline>
    <contour>
      <point x="146" y="508.99" type="line"/>
      <point x="76" y="508.99" type="line"/>
      <point x="76" y="0" type="line"/>
      <point x="146" y="0" type="line"/>
      <point x="146" y="305.51" type="line"/>
      <point x="150.86" y="400.93"/>
      <point x="210.08" y="448.74"/>
      <point x="266.1" y="448.74" type="curve" smooth="yes"/>
      <point x="280.6" y="448.74"/>
      <point x="297.23" y="442.94"/>
      <point x="307.35" y="435.35" type="curve"/>
      <point x="342.52" y="496.58" type="line"/>
      <point x="319.51" y="506.34"/>
      <point x="293.79" y="513.29"/>
      <point x="266.01" y="513.29" type="curve" smooth="yes"/>
      <point x="221.37" y="513.29"/>
      <point x="173.61" y="497.64"/>
      <point x="146" y="448.63" type="curve"/>
    </contour>
  </outline>
</glyph>
<glyph name="s" format="1">
  <advance width="421"/>
  <unicode hex="0073"/>
  <outline>
    <contour>
      <point x="362.1" y="436.15" type="line"/>
      <point x="319.96" y="480.97"/>
      <point x="276.84" y="505.36"/>
      <point x="215.91" y="508.47" type="curve" smooth="yes"/>
      <point x="127.97" y="512.96"/>
      <point x="57.12" y="450.08"/>
      <point x="60.91" y="372.72" type="curve" smooth="yes"/>
      <point x="65.11" y="286.99"/>
      <point x="145.2" y="264.56"/>
      <point x="229.09" y="234.88" type="curve" smooth="yes"/>
      <point x="272.18" y="221.08"/>
      <point x="323.14" y="200.96"/>
      <point x="323.16" y="141.34" type="curve" smooth="yes"/>
      <point x="323.18" y="87.02"/>
      <point x="280.37" y="58.6"/>
      <point x="217.61" y="58.6" type="curve" smooth="yes"/>
      <point x="150.81" y="58.63"/>
      <point x="118.25" y="87.08"/>
      <point x="80.8301" y="126.31" type="curve"/>
      <point x="30.0001" y="82.31" type="line"/>
      <point x="73.9401" y="36.19"/>
      <point x="125.05" y="-5"/>
      <point x="217.6" y="-5" type="curve" smooth="yes"/>
      <point x="301.74" y="-5"/>
      <point x="393.21" y="40.53"/>
      <point x="393.16" y="141.37" type="curve" smooth="yes"/>
      <point x="393.1" y="261.79"/>
      <point x="273.22" y="287.9"/>
      <point x="229.8" y="303.26" type="curve" smooth="yes"/>
      <point x="164.55" y="326.08"/>
      <point x="132.67" y="338.27"/>
      <point x="130.83" y="375.85" type="curve" smooth="yes"/>
      <point x="128.83" y="416.71"/>
      <point x="162.26" y="447.01"/>
      <point x="212.34" y="444.56" type="curve" smooth="yes"/>
      <point x="257.29" y="442.36"/>
      <point x="285.32" y="423.6"/>
      <point x="313.38" y="394.02" type="curve"/>
    </contour>
  </outline>
</glyph>
<glyph name="t" format="1">
  <advance width="338"/>
  <unicode hex="0074"/>
  <outline>
    <contour>
      <point x="294.89" y="84.32" type="line"/>
      <point x="279.97" y="72.72"/>
      <point x="261.34" y="65"/>
      <point x="244.21" y="62" type="curve" smooth="yes"/>
      <point x="164.54" y="48.04"/>
      <point x="156.2" y="98.26"/>
      <point x="156.2" y="155.38" type="curve" smooth="yes"/>
      <point x="156.2" y="443.37" type="line"/>
      <point x="312.53" y="443.37" type="line"/>
      <point x="312.53" y="507.37" type="line"/>
      <point x="156.2" y="507.37" type="line"/>
      <point x="156.2" y="700" type="line"/>
      <point x="86.21" y="700" type="line"/>
      <point x="86.21" y="507.37" type="line"/>
      <point x="6.00002" y="507.37" type="line"/>
      <point x="6.00002" y="443.37" type="line"/>
      <point x="86.21" y="443.37" type="line"/>
      <point x="86.21" y="155.38" type="line" smooth="yes"/>
      <point x="86.21" y="76.5"/>
      <point x="99.5" y="-18"/>
      <point x="244.21" y="-2" type="curve" smooth="yes"/>
      <point x="270.87" y="0.949997"/>
      <point x="306.7" y="13.11"/>
      <point x="326.74" y="27.32" type="curve"/>
    </contour>
  </outline>
</glyph>
<glyph name="w" format="1">
  <advance width="680"/>
  <unicode hex="0077"/>
  <outline>
    <contour>
      <point x="216.63" y="0" type="line"/>
      <point x="340.66" y="359.97" type="line"/>
      <point x="463.36" y="0" type="line"/>
      <point x="492.7" y="0" type="line"/>
      <point x="664.98" y="500" type="line"/>
      <point x="591.62" y="500" type="line"/>
      <point x="478.04" y="170.34" type="line"/>
      <point x="364.45" y="500" type="line"/>
      <point x="315.55" y="500" type="line"/>
      <point x="201.96" y="170.34" type="line"/>
      <point x="88.37" y="500" type="line"/>
      <point x="15" y="500" type="line"/>
      <point x="187.29" y="0" type="line"/>
    </contour>
  </outline>
</glyph>
<glyph name="x" format="1">
  <advance width="548"/>
  <unicode hex="0078"/>
  <outline>
    <contour>
      <point x="229.95" y="253.68" type="line"/>
      <point x="15" y="0" type="line"/>
      <point x="103.47" y="0" type="line"/>
      <point x="274.18" y="201.48" type="line"/>
      <point x="444.88" y="0" type="line"/>
      <point x="533.34" y="0" type="line"/>
      <point x="318.4" y="253.68" type="line"/>
      <point x="527.1" y="500" type="line"/>
      <point x="438.65" y="500" type="line"/>
      <point x="274.17" y="305.89" type="line"/>
      <point x="109.71" y="500" type="line"/>
      <point x="21.24" y="500" type="line"/>
    </contour>
  </outline>
</glyph>
<glyph name="y" format="1">
  <advance width="593"/>
  <unicode hex="0079"/>
  <outline>
    <contour>
      <point x="178.57" y="-200" type="line"/>
      <point x="588.05" y="500" type="line"/>
      <point x="508.74" y="500" type="line"/>
      <point x="299.85" y="142.64" type="line"/>
      <point x="89.75" y="500" type="line"/>
      <point x="8.99997" y="500" type="line"/>
      <point x="260.24" y="74.88" type="line"/>
      <point x="99.43" y="-200" type="line"/>
    </contour>
  </outline>
</glyph>
<glyph name="braceright" format="1">
  <advance width="309"/>
  <unicode hex="007D"/>
  <outline>
    <contour>
      <point x="36.34" y="-86" type="line"/>
      <point x="39.56" y="-88"/>
      <point x="63" y="-99"/>
      <point x="88.14" y="-99" type="curve" smooth="yes"/>
      <point x="119.84" y="-99"/>
      <point x="154.25" y="-81"/>
      <point x="154.25" y="-3" type="curve" smooth="yes"/>
      <point x="154.25" y="48.49"/>
      <point x="147.88" y="107.78"/>
      <point x="147.88" y="162.91" type="curve" smooth="yes"/>
      <point x="147.88" y="226.3"/>
      <point x="156.3" y="284.18"/>
      <point x="192.54" y="318.35" type="curve"/>
      <point x="156.3" y="352.53"/>
      <point x="147.88" y="410.41"/>
      <point x="147.88" y="473.81" type="curve" smooth="yes"/>
      <point x="147.88" y="528.95"/>
      <point x="154.25" y="588.27"/>
      <point x="154.25" y="639.79" type="curve" smooth="yes"/>
      <point x="154.25" y="716.16"/>
      <point x="120.16" y="733.78"/>
      <point x="87.28" y="733.78" type="curve" smooth="yes"/>
      <point x="61.41" y="733.78"/>
      <point x="36.28" y="722.87"/>
      <point x="29.08" y="721.09" type="curve"/>
      <point x="12.26" y="783.22" type="line"/>
      <point x="12.27" y="783.22"/>
      <point x="48.88" y="796.88"/>
      <point x="91.67" y="796.88" type="curve" smooth="yes"/>
      <point x="151.85" y="796.88"/>
      <point x="224.25" y="769.86"/>
      <point x="224.25" y="639.79" type="curve" smooth="yes"/>
      <point x="224.25" y="576.28"/>
      <point x="218.44" y="516.21"/>
      <point x="218.44" y="467.43" type="curve" smooth="yes"/>
      <point x="218.44" y="397.18"/>
      <point x="230.49" y="350.35"/>
      <point x="289.28" y="350.35" type="curve"/>
      <point x="289.28" y="286.35" type="line"/>
      <point x="230.49" y="286.35"/>
      <point x="218.44" y="239.51"/>
      <point x="218.44" y="169.28" type="curve" smooth="yes"/>
      <point x="218.44" y="120.52"/>
      <point x="224.25" y="60.48"/>
      <point x="224.25" y="-3" type="curve" smooth="yes"/>
      <point x="224.25" y="-133"/>
      <point x="156.19" y="-162"/>
      <point x="95.91" y="-162" type="curve" smooth="yes"/>
      <point x="48" y="-162"/>
      <point x="4.99997" y="-144"/>
      <point x="4.99997" y="-144" type="curve"/>
    </contour>
  </outline>
</glyph>
<glyph name="asciitilde" format="1">
  <advance width="600"/>
  <unicode hex="007E"/>
  <outline>
    <contour>
      <point x="152.2" y="305.93" type="line"/>
      <point x="148.48" y="316.35"/>
      <point x="146.72" y="327.38"/>
      <point x="146.72" y="338.08" type="curve" smooth="yes"/>
      <point x="146.72" y="377.12"/>
      <point x="166.58" y="403.11"/>
      <point x="204.54" y="403.11" type="curve" smooth="yes"/>
      <point x="285.25" y="403.11"/>
      <point x="310.51" y="254.08"/>
      <point x="421.84" y="254.08" type="curve" smooth="yes"/>
      <point x="484.71" y="254.08"/>
      <point x="555.53" y="294.82"/>
      <point x="555.53" y="377.63" type="curve" smooth="yes"/>
      <point x="555.53" y="402.57"/>
      <point x="548.6" y="427.77"/>
      <point x="535.78" y="449.51" type="curve"/>
      <point x="475.48" y="416.99" type="line"/>
      <point x="482.11" y="405.75"/>
      <point x="485.45" y="392.72"/>
      <point x="485.45" y="379.9" type="curve" smooth="yes"/>
      <point x="485.45" y="348.97"/>
      <point x="466.01" y="319.33"/>
      <point x="426.51" y="319.33" type="curve" smooth="yes"/>
      <point x="349.94" y="319.33"/>
      <point x="319.85" y="468.57"/>
      <point x="208.12" y="468.57" type="curve" smooth="yes"/>
      <point x="135.97" y="468.57"/>
      <point x="77.33" y="419.08"/>
      <point x="77.33" y="337.05" type="curve" smooth="yes"/>
      <point x="77.33" y="318.94"/>
      <point x="80.39" y="300.9"/>
      <point x="86.2701" y="284.41" type="curve"/>
    </contour>
  </outline>
</glyph>
<glyph name="cent" format="1">
  <advance width="559"/>
  <unicode hex="00A2"/>
  <outline>
    <contour>
      <point x="448.13" y="219.07" type="line"/>
      <point x="414.58" y="172.28"/>
      <point x="364.15" y="143.59"/>
      <point x="307.35" y="143.59" type="curve" smooth="yes"/>
      <point x="210.77" y="143.59"/>
      <point x="130.13" y="228.54"/>
      <point x="130.13" y="334.76" type="curve" smooth="yes"/>
      <point x="130.13" y="433.91"/>
      <point x="203.13" y="525.93"/>
      <point x="307.35" y="525.93" type="curve" smooth="yes"/>
      <point x="360.2" y="525.93"/>
      <point x="407.77" y="500.89"/>
      <point x="441.34" y="459.44" type="curve"/>
      <point x="495.74" y="499.72" type="line"/>
      <point x="459.33" y="544.66"/>
      <point x="399.06" y="579.88"/>
      <point x="335.35" y="588.1" type="curve"/>
      <point x="335.35" y="675.22" type="line"/>
      <point x="265.35" y="675.22" type="line"/>
      <point x="265.35" y="586.53" type="line"/>
      <point x="139.33" y="565.65"/>
      <point x="60.13" y="451.94"/>
      <point x="60.13" y="334.76" type="curve" smooth="yes"/>
      <point x="60.13" y="209.18"/>
      <point x="147.46" y="103.68"/>
      <point x="265.38" y="83.1899" type="curve"/>
      <point x="265.38" y="-8.00006" type="line"/>
      <point x="335.38" y="-8.00006" type="line"/>
      <point x="335.38" y="81.4199" type="line"/>
      <point x="404.1" y="90.3099"/>
      <point x="468.41" y="130.73"/>
      <point x="505.02" y="181.78" type="curve"/>
    </contour>
  </outline>
</glyph>
<glyph name="yen" format="1">
  <advance width="600"/>
  <unicode hex="00A5"/>
  <outline>
    <contour>
      <point x="369.38" y="353.94" type="line"/>
      <point x="614.69" y="669.55" type="line"/>
      <point x="559.42" y="708.82" type="line"/>
      <point x="311.86" y="390.32" type="line"/>
      <point x="64.31" y="708.82" type="line"/>
      <point x="9.03998" y="669.55" type="line"/>
      <point x="254.33" y="353.94" type="line"/>
      <point x="96.91" y="353.94" type="line"/>
      <point x="96.91" y="289.94" type="line"/>
      <point x="283.86" y="289.94" type="line"/>
      <point x="283.86" y="202.56" type="line"/>
      <point x="96.91" y="202.56" type="line"/>
      <point x="96.91" y="138.56" type="line"/>
      <point x="283.86" y="138.56" type="line"/>
      <point x="283.86" y="0" type="line"/>
      <point x="353.86" y="0" type="line"/>
      <point x="353.86" y="138.56" type="line"/>
      <point x="526.82" y="138.56" type="line"/>
      <point x="526.82" y="202.56" type="line"/>
      <point x="353.86" y="202.56" type="line"/>
      <point x="353.86" y="289.94" type="line"/>
      <point x="526.82" y="289.94" type="line"/>
      <point x="526.82" y="353.94" type="line"/>
    </contour>
  </outline>
</glyph>
<glyph name="section" format="1">
  <advance width="600"/>
  <unicode hex="00A7"/>
  <outline>
    <contour>
      <point x="481.62" y="691.66" type="line"/>
      <point x="479.71" y="693.98"/>
      <point x="412.43" y="773.92"/>
      <point x="298.54" y="779.71" type="curve" smooth="yes"/>
      <point x="180.51" y="785.71"/>
      <point x="91.01" y="704.85"/>
      <point x="100.46" y="598.87" type="curve" smooth="yes"/>
      <point x="104.5" y="553.5"/>
      <point x="128.11" y="520.99"/>
      <point x="159.45" y="496.39" type="curve"/>
      <point x="118.47" y="463.28"/>
      <point x="95.46" y="414.19"/>
      <point x="100.46" y="358.09" type="curve" smooth="yes"/>
      <point x="109.22" y="259.7"/>
      <point x="210.04" y="221.8"/>
      <point x="282.02" y="193.83" type="curve" smooth="yes"/>
      <point x="354.78" y="165.55"/>
      <point x="454.66" y="142.44"/>
      <point x="454.71" y="57.12" type="curve" smooth="yes"/>
      <point x="454.74" y="-22"/>
      <point x="380.44" y="-56"/>
      <point x="298.73" y="-56" type="curve" smooth="yes"/>
      <point x="210.39" y="-56"/>
      <point x="150.39" y="-4.99998"/>
      <point x="129.34" y="28" type="curve"/>
      <point x="70.1499" y="-6.12999" type="line"/>
      <point x="96.0299" y="-47.13"/>
      <point x="180.64" y="-120.13"/>
      <point x="298.73" y="-120.13" type="curve" smooth="yes"/>
      <point x="404.04" y="-120.13"/>
      <point x="524.77" y="-70.13"/>
      <point x="524.71" y="56.87" type="curve" smooth="yes"/>
      <point x="524.68" y="110.57"/>
      <point x="501.35" y="148.31"/>
      <point x="468.88" y="176.01" type="curve"/>
      <point x="501.71" y="205.21"/>
      <point x="524.73" y="246.96"/>
      <point x="524.71" y="297.65" type="curve" smooth="yes"/>
      <point x="524.64" y="432.75"/>
      <point x="377.07" y="466.89"/>
      <point x="307.38" y="493.98" type="curve" smooth="yes"/>
      <point x="236.91" y="521.37"/>
      <point x="175.51" y="544.45"/>
      <point x="170.18" y="604.27" type="curve" smooth="yes"/>
      <point x="164.47" y="668.32"/>
      <point x="219.71" y="719.34"/>
      <point x="294.98" y="715.51" type="curve" smooth="yes"/>
      <point x="376.6" y="711.36"/>
      <point x="424.04" y="655"/>
      <point x="427.62" y="650.66" type="curve"/>
    </contour>
    <contour>
      <point x="166.52" y="404.55"/>
      <point x="187.62" y="440.24"/>
      <point x="221.88" y="459.17" type="curve"/>
      <point x="242.46" y="449.62"/>
      <point x="263.22" y="441.63"/>
      <point x="282.02" y="434.33" type="curve" smooth="yes"/>
      <point x="354.78" y="406.04"/>
      <point x="454.66" y="382.94"/>
      <point x="454.71" y="297.62" type="curve" smooth="yes"/>
      <point x="454.73" y="257.29"/>
      <point x="437.87" y="230.95"/>
      <point x="410.15" y="213.17" type="curve"/>
      <point x="372.94" y="231.19"/>
      <point x="334.33" y="242.73"/>
      <point x="307.38" y="253.2" type="curve" smooth="yes"/>
      <point x="236.91" y="280.59"/>
      <point x="175.51" y="303.67"/>
      <point x="170.18" y="363.49" type="curve" smooth="yes"/>
    </contour>
  </outline>
</glyph>
<glyph name="ordfeminine" format="1">
  <advance width="373"/>
  <unicode hex="00AA"/>
  <outline>
    <contour>
      <point x="101.52" y="690.59" type="line"/>
      <point x="119.61" y="707.72"/>
      <point x="144.77" y="727.25"/>
      <point x="178.31" y="727.25" type="curve" smooth="yes"/>
      <point x="215.11" y="727.25"/>
      <point x="242.69" y="703.15"/>
      <point x="242.69" y="660.65" type="curve" smooth="yes"/>
      <point x="242.69" y="646.23" type="line"/>
      <point x="225.37" y="649.21"/>
      <point x="205.87" y="650.79"/>
      <point x="188.7" y="650.79" type="curve" smooth="yes"/>
      <point x="112.91" y="650.79"/>
      <point x="37" y="625.28"/>
      <point x="37" y="538.47" type="curve" smooth="yes"/>
      <point x="37" y="495.59"/>
      <point x="72.73" y="440.7"/>
      <point x="149.02" y="440.7" type="curve" smooth="yes"/>
      <point x="185.3" y="440.7"/>
      <point x="217.91" y="453.81"/>
      <point x="242.69" y="473.57" type="curve"/>
      <point x="242.69" y="444.52" type="line"/>
      <point x="307.17" y="444.52" type="line"/>
      <point x="307.17" y="660.65" type="line" smooth="yes"/>
      <point x="307.17" y="732.68"/>
      <point x="248.4" y="781.92"/>
      <point x="178.31" y="781.92" type="curve" smooth="yes"/>
      <point x="109.75" y="781.92"/>
      <point x="69.32" y="741.87"/>
      <point x="58.3" y="728.35" type="curve"/>
    </contour>
    <contour>
      <point x="240.9" y="531.46"/>
      <point x="207.82" y="495.12"/>
      <point x="149.02" y="495.12" type="curve" smooth="yes"/>
      <point x="115.27" y="495.12"/>
      <point x="101.49" y="514.26"/>
      <point x="101.49" y="538.47" type="curve" smooth="yes"/>
      <point x="101.49" y="587.57"/>
      <point x="133.8" y="600.76"/>
      <point x="197.59" y="600.76" type="curve" smooth="yes"/>
      <point x="214.24" y="600.76"/>
      <point x="229.46" y="599.13"/>
      <point x="242.61" y="596.99" type="curve"/>
    </contour>
  </outline>
</glyph>
<glyph name="guillemotleft" format="1">
  <advance width="600"/>
  <unicode hex="00AB"/>
  <outline>
    <contour>
      <point x="237.47" y="67.3" type="line"/>
      <point x="289.15" y="110.47" type="line"/>
      <point x="140.3" y="273.4" type="line"/>
      <point x="289.15" y="436.32" type="line"/>
      <point x="237.47" y="479.48" type="line"/>
      <point x="29.18" y="273.4" type="line"/>
    </contour>
    <contour>
      <point x="423.31" y="67.3" type="line"/>
      <point x="474.99" y="110.47" type="line"/>
      <point x="326.14" y="273.4" type="line"/>
      <point x="474.99" y="436.32" type="line"/>
      <point x="423.31" y="479.48" type="line"/>
      <point x="215.02" y="273.4" type="line"/>
    </contour>
  </outline>
</glyph>
<glyph name="softhyphen" format="1">
  <advance width="600"/>
  <unicode hex="00AD"/>
  <outline>
    <contour>
      <point x="65.94" y="255.59" type="line"/>
      <point x="431.73" y="255.59" type="line"/>
      <point x="431.73" y="317.59" type="line"/>
      <point x="65.94" y="317.59" type="line"/>
    </contour>
  </outline>
</glyph>
<glyph name="macron" format="1">
  <advance width="600"/>
  <unicode hex="00AF"/>
  <outline>
    <contour>
      <point x="560.29" y="528.33" type="line"/>
      <point x="560.29" y="592.33" type="line"/>
      <point x="41.99" y="592.33" type="line"/>
      <point x="41.99" y="528.33" type="line"/>
    </contour>
  </outline>
</glyph>
<glyph name="plusminus" format="1">
  <advance width="600"/>
  <unicode hex="00B1"/>
  <outline>
    <contour>
      <point x="572" y="397.86" type="line"/>
      <point x="336.47" y="397.86" type="line"/>
      <point x="336.47" y="569.11" type="line"/>
      <point x="266.47" y="569.11" type="line"/>
      <point x="266.47" y="397.86" type="line"/>
      <point x="30.93" y="397.86" type="line"/>
      <point x="30.93" y="333.86" type="line"/>
      <point x="266.47" y="333.86" type="line"/>
      <point x="266.47" y="162.61" type="line"/>
      <point x="336.47" y="162.61" type="line"/>
      <point x="336.47" y="333.86" type="line"/>
      <point x="572" y="333.86" type="line"/>
    </contour>
    <contour>
      <point x="30.94" y="32" type="line"/>
      <point x="30.94" y="-32" type="line"/>
      <point x="572" y="-32" type="line"/>
      <point x="572" y="32" type="line"/>
    </contour>
  </outline>
</glyph>
<glyph name="twosuperior" format="1">
  <advance width="283"/>
  <unicode hex="00B2"/>
  <outline>
    <contour>
      <point x="267.03" y="500.1" type="line"/>
      <point x="267.03" y="564.1" type="line"/>
      <point x="104.46" y="564.1" type="line"/>
      <point x="144.4" y="614.95"/>
      <point x="202.99" y="690.11"/>
      <point x="230.06" y="727.62" type="curve" smooth="yes"/>
      <point x="290.48" y="811.36"/>
      <point x="229.85" y="907.21"/>
      <point x="134.04" y="907.21" type="curve" smooth="yes"/>
      <point x="79.82" y="907.21"/>
      <point x="35.57" y="873.22"/>
      <point x="20.22" y="827.36" type="curve"/>
      <point x="86.6" y="807.04" type="line"/>
      <point x="93.86" y="828.71"/>
      <point x="113.14" y="843.21"/>
      <point x="134.04" y="843.21" type="curve" smooth="yes"/>
      <point x="175.62" y="843.21"/>
      <point x="200.35" y="802.56"/>
      <point x="173.3" y="765.07" type="curve" smooth="yes"/>
      <point x="129.32" y="704.12"/>
      <point x="18" y="564.1"/>
      <point x="18" y="564.1" type="curve"/>
      <point x="18" y="500.1" type="line"/>
    </contour>
  </outline>
</glyph>
<glyph name="threesuperior" format="1">
  <advance width="312"/>
  <unicode hex="00B3"/>
  <outline>
    <contour>
      <point x="111.42" y="803.62" type="line"/>
      <point x="114.42" y="816.22"/>
      <point x="124.97" y="836.7"/>
      <point x="151.3" y="836.7" type="curve" smooth="yes"/>
      <point x="174.01" y="836.7"/>
      <point x="192.46" y="818.25"/>
      <point x="192.46" y="792.54" type="curve" smooth="yes"/>
      <point x="192.46" y="766.84"/>
      <point x="173.41" y="753.6"/>
      <point x="151.3" y="748.39" type="curve" smooth="yes"/>
      <point x="138.77" y="745.44"/>
      <point x="126.23" y="744.48"/>
      <point x="113.7" y="744.53" type="curve"/>
      <point x="113.7" y="687.29" type="line"/>
      <point x="126.23" y="687.29"/>
      <point x="138.77" y="687.29"/>
      <point x="151.3" y="684.29" type="curve" smooth="yes"/>
      <point x="186.38" y="675.89"/>
      <point x="214.44" y="653.88"/>
      <point x="214.44" y="620.77" type="curve" smooth="yes"/>
      <point x="214.44" y="583.52"/>
      <point x="189.96" y="557.15"/>
      <point x="151.3" y="557.15" type="curve" smooth="yes"/>
      <point x="122.88" y="557.15"/>
      <point x="106.5" y="567.52"/>
      <point x="94.14" y="588.27" type="curve"/>
      <point x="34" y="555.5" type="line"/>
      <point x="53.91" y="522.11"/>
      <point x="98.55" y="493.15"/>
      <point x="151.3" y="493.15" type="curve" smooth="yes"/>
      <point x="230.61" y="493.15"/>
      <point x="284.44" y="552.32"/>
      <point x="284.44" y="620.77" type="curve" smooth="yes"/>
      <point x="284.44" y="660.72"/>
      <point x="264.28" y="696.77"/>
      <point x="233.59" y="720.28" type="curve"/>
      <point x="251.54" y="739.61"/>
      <point x="262.46" y="765.1"/>
      <point x="262.46" y="792.54" type="curve" smooth="yes"/>
      <point x="262.46" y="851.06"/>
      <point x="212.81" y="900.7"/>
      <point x="151.3" y="900.7" type="curve" smooth="yes"/>
      <point x="94.91" y="900.7"/>
      <point x="52.5" y="857.06"/>
      <point x="43.31" y="818.4" type="curve"/>
    </contour>
  </outline>
</glyph>
<glyph name="acute" format="1">
  <advance width="600"/>
  <unicode hex="00B4"/>
  <outline>
    <contour>
      <point x="142.04" y="614.05" type="line"/>
      <point x="157.81" y="554" type="line"/>
      <point x="360.91" y="633.53" type="line"/>
      <point x="338.78" y="708.42" type="line"/>
    </contour>
  </outline>
</glyph>
<glyph name="paragraph" format="1">
  <advance width="600"/>
  <unicode hex="00B6"/>
  <outline>
    <contour>
      <point x="520.68" y="776.07" type="line"/>
      <point x="230.04" y="776.07" type="line" smooth="yes"/>
      <point x="178.88" y="776.07"/>
      <point x="132.59" y="755.45"/>
      <point x="99.06" y="722.09" type="curve" smooth="yes"/>
      <point x="65.54" y="688.74"/>
      <point x="44.83" y="642.68"/>
      <point x="44.83" y="591.8" type="curve" smooth="yes"/>
      <point x="44.83" y="490.03"/>
      <point x="127.73" y="407.55"/>
      <point x="230.04" y="407.55" type="curve" smooth="yes"/>
      <point x="274.13" y="407.55" type="line"/>
      <point x="274.13" y="-164" type="line"/>
      <point x="344.13" y="-164" type="line"/>
      <point x="344.13" y="712.07" type="line"/>
      <point x="450.68" y="712.07" type="line"/>
      <point x="450.68" y="-164" type="line"/>
      <point x="520.68" y="-164" type="line"/>
    </contour>
    <contour>
      <point x="274.13" y="712.07" type="line"/>
      <point x="274.13" y="471.55" type="line"/>
      <point x="230.04" y="471.55" type="line" smooth="yes"/>
      <point x="167.88" y="471.55"/>
      <point x="114.83" y="524.41"/>
      <point x="114.83" y="591.8" type="curve" smooth="yes"/>
      <point x="114.83" y="626.14"/>
      <point x="128.37" y="656.75"/>
      <point x="148.43" y="676.72" type="curve" smooth="yes"/>
      <point x="172.24" y="700.41"/>
      <point x="198.92" y="712.07"/>
      <point x="230.04" y="712.07" type="curve" smooth="yes"/>
    </contour>
  </outline>
</glyph>
<glyph name="onesuperior" format="1">
  <advance width="359"/>
  <unicode hex="00B9"/>
  <outline>
    <contour>
      <point x="84" y="845.28" type="line"/>
      <point x="84" y="762.27" type="line"/>
      <point x="175.84" y="830.53" type="line"/>
      <point x="175.84" y="502.77" type="line"/>
      <point x="246.84" y="502.77" type="line"/>
      <point x="246.84" y="901.57" type="line"/>
      <point x="183.48" y="901.57" type="line"/>
    </contour>
  </outline>
</glyph>
<glyph name="guillemotright" format="1">
  <advance width="595"/>
  <unicode hex="00BB"/>
  <outline>
    <contour>
      <point x="378.97" y="273.4" type="line"/>
      <point x="170.68" y="67.3" type="line"/>
      <point x="119" y="110.47" type="line"/>
      <point x="267.85" y="273.4" type="line"/>
      <point x="119" y="436.32" type="line"/>
      <point x="170.68" y="479.48" type="line"/>
    </contour>
    <contour>
      <point x="564.81" y="273.4" type="line"/>
      <point x="356.52" y="67.3" type="line"/>
      <point x="304.84" y="110.47" type="line"/>
      <point x="453.69" y="273.4" type="line"/>
      <point x="304.84" y="436.32" type="line"/>
      <point x="356.52" y="479.48" type="line"/>
    </contour>
  </outline>
</glyph>
<glyph name="onehalf" format="1">
  <advance width="755"/>
  <unicode hex="00BD"/>
  <outline>
    <contour>
      <point x="183.48" y="901.57" type="line"/>
      <point x="84" y="845.28" type="line"/>
      <point x="84" y="762.27" type="line"/>
      <point x="175.84" y="830.53" type="line"/>
      <point x="175.84" y="502.77" type="line"/>
      <point x="246.84" y="502.77" type="line"/>
      <point x="246.84" y="901.57" type="line"/>
    </contour>
    <contour>
      <point x="664.81" y="878" type="line"/>
      <point x="90.76" y="18.33" type="line"/>
      <point x="148.45" y="-18" type="line"/>
      <point x="722.2" y="841.34" type="line"/>
    </contour>
    <contour>
      <point x="475.44" y="-0.370056" type="line"/>
      <point x="724.47" y="-0.370056" type="line"/>
      <point x="724.47" y="63.6299" type="line"/>
      <point x="561.9" y="63.6299" type="line"/>
      <point x="601.84" y="114.48"/>
      <point x="660.43" y="189.64"/>
      <point x="687.5" y="227.15" type="curve" smooth="yes"/>
      <point x="747.92" y="310.89"/>
      <point x="687.29" y="406.74"/>
      <point x="591.48" y="406.74" type="curve" smooth="yes"/>
      <point x="537.26" y="406.74"/>
      <point x="493.01" y="372.75"/>
      <point x="477.66" y="326.89" type="curve"/>
      <point x="544.04" y="306.57" type="line"/>
      <point x="551.3" y="328.24"/>
      <point x="570.58" y="342.74"/>
      <point x="591.48" y="342.74" type="curve" smooth="yes"/>
      <point x="633.06" y="342.74"/>
      <point x="657.79" y="302.09"/>
      <point x="630.74" y="264.6" type="curve" smooth="yes"/>
      <point x="586.76" y="203.65"/>
      <point x="475.44" y="63.6299"/>
      <point x="475.44" y="63.6299" type="curve"/>
    </contour>
  </outline>
</glyph>
<glyph name="threequarters" format="1">
  <advance width="745"/>
  <unicode hex="00BE"/>
  <outline>
    <contour>
      <point x="111.42" y="803.62" type="line"/>
      <point x="114.42" y="816.22"/>
      <point x="124.97" y="836.7"/>
      <point x="151.3" y="836.7" type="curve" smooth="yes"/>
      <point x="174.01" y="836.7"/>
      <point x="192.46" y="818.25"/>
      <point x="192.46" y="792.54" type="curve" smooth="yes"/>
      <point x="192.46" y="766.84"/>
      <point x="173.41" y="753.6"/>
      <point x="151.3" y="748.39" type="curve" smooth="yes"/>
      <point x="138.77" y="745.44"/>
      <point x="126.23" y="744.48"/>
      <point x="113.7" y="744.53" type="curve"/>
      <point x="113.7" y="687.29" type="line"/>
      <point x="126.23" y="687.29"/>
      <point x="138.77" y="687.29"/>
      <point x="151.3" y="684.29" type="curve" smooth="yes"/>
      <point x="186.38" y="675.89"/>
      <point x="214.44" y="653.88"/>
      <point x="214.44" y="620.77" type="curve" smooth="yes"/>
      <point x="214.44" y="583.52"/>
      <point x="189.96" y="557.15"/>
      <point x="151.3" y="557.15" type="curve" smooth="yes"/>
      <point x="122.88" y="557.15"/>
      <point x="106.5" y="567.52"/>
      <point x="94.14" y="588.27" type="curve"/>
      <point x="34" y="555.5" type="line"/>
      <point x="53.91" y="522.11"/>
      <point x="98.55" y="493.15"/>
      <point x="151.3" y="493.15" type="curve" smooth="yes"/>
      <point x="230.61" y="493.15"/>
      <point x="284.44" y="552.32"/>
      <point x="284.44" y="620.77" type="curve" smooth="yes"/>
      <point x="284.44" y="660.72"/>
      <point x="264.28" y="696.77"/>
      <point x="233.59" y="720.28" type="curve"/>
      <point x="251.54" y="739.61"/>
      <point x="262.46" y="765.1"/>
      <point x="262.46" y="792.54" type="curve" smooth="yes"/>
      <point x="262.46" y="851.06"/>
      <point x="212.81" y="900.7"/>
      <point x="151.3" y="900.7" type="curve" smooth="yes"/>
      <point x="94.91" y="900.7"/>
      <point x="52.5" y="857.06"/>
      <point x="43.31" y="818.4" type="curve"/>
    </contour>
    <contour>
      <point x="71.62" y="18.3299" type="line"/>
      <point x="129.31" y="-18.0001" type="line"/>
      <point x="703.06" y="841.34" type="line"/>
      <point x="645.67" y="878" type="line"/>
    </contour>
    <contour>
      <point x="603.07" y="84.8999" type="line"/>
      <point x="651.17" y="84.8999" type="line"/>
      <point x="651.17" y="143.9" type="line"/>
      <point x="603.07" y="143.9" type="line"/>
      <point x="603.07" y="397.66" type="line"/>
      <point x="552.16" y="397.66" type="line"/>
      <point x="385.74" y="140.86" type="line"/>
      <point x="385.74" y="84.8999" type="line"/>
      <point x="533.07" y="84.8999" type="line"/>
      <point x="533.07" y="-0.940079" type="line"/>
      <point x="603.07" y="-0.940079" type="line"/>
    </contour>
    <contour>
      <point x="533.07" y="253.91" type="line"/>
      <point x="533.07" y="143.9" type="line"/>
      <point x="463.53" y="143.9" type="line"/>
    </contour>
  </outline>
</glyph>
<glyph name="questiondown" format="1">
  <advance width="600"/>
  <unicode hex="00BF"/>
  <outline>
    <contour>
      <point x="263.27" y="726.19"/>
      <point x="291.35" y="698.11"/>
      <point x="291.35" y="663.46" type="curve" smooth="yes"/>
      <point x="291.35" y="628.82"/>
      <point x="263.27" y="600.74"/>
      <point x="228.62" y="600.74" type="curve" smooth="yes"/>
      <point x="193.98" y="600.74"/>
      <point x="165.9" y="628.82"/>
      <point x="165.9" y="663.46" type="curve" smooth="yes"/>
      <point x="165.9" y="698.11"/>
      <point x="193.98" y="726.19"/>
      <point x="228.62" y="726.19" type="curve" smooth="yes"/>
    </contour>
    <contour>
      <point x="185.71" y="484.89" type="line"/>
      <point x="255.71" y="484.89" type="line"/>
      <point x="255.71" y="378.39" type="line"/>
      <point x="336.18" y="348.44"/>
      <point x="423.06" y="298.35"/>
      <point x="431.91" y="192.74" type="curve" smooth="yes"/>
      <point x="440.41" y="91.36"/>
      <point x="358.55" y="12.44"/>
      <point x="249.54" y="18.25" type="curve" smooth="yes"/>
      <point x="136.4" y="24.27"/>
      <point x="101.91" y="107.59"/>
      <point x="101.91" y="107.59" type="curve"/>
      <point x="154.93" y="145.28" type="line"/>
      <point x="154.93" y="145.42"/>
      <point x="185.69" y="85.75"/>
      <point x="253.26" y="82.15" type="curve" smooth="yes"/>
      <point x="320.71" y="78.56"/>
      <point x="367.45" y="124.18"/>
      <point x="362.15" y="187.4" type="curve" smooth="yes"/>
      <point x="355.03" y="272.36"/>
      <point x="262.45" y="306.07"/>
      <point x="173.71" y="333.79" type="curve"/>
    </contour>
  </outline>
</glyph>
<glyph name="Agrave" format="1">
  <advance width="653"/>
  <unicode hex="00C0"/>
  <outline>
    <contour>
      <point x="222.5" y="833.53" type="line"/>
      <point x="425.61" y="754" type="line"/>
      <point x="441.37" y="814.05" type="line"/>
      <point x="244.63" y="908.42" type="line"/>
    </contour>
    <contour>
      <point x="172.66" y="223.09" type="line"/>
      <point x="478.84" y="223.09" type="line"/>
      <point x="566.18" y="-3.05176e-05" type="line"/>
      <point x="640.5" y="-3.05176e-05" type="line"/>
      <point x="366.45" y="700" type="line"/>
      <point x="285.06" y="700" type="line"/>
      <point x="10.9999" y="0" type="line"/>
      <point x="85.3199" y="0" type="line"/>
    </contour>
    <contour>
      <point x="325.76" y="614.12" type="line"/>
      <point x="453.79" y="287.09" type="line"/>
      <point x="197.72" y="287.09" type="line"/>
    </contour>
  </outline>
</glyph>
<glyph name="Acircumflex" format="1">
  <advance width="653"/>
  <unicode hex="00C2"/>
  <outline>
    <contour>
      <point x="325.85" y="824.86" type="line"/>
      <point x="506.83" y="754" type="line"/>
      <point x="522.59" y="814.05" type="line"/>
      <point x="325.85" y="908.42" type="line"/>
      <point x="129.11" y="814.05" type="line"/>
      <point x="144.87" y="754" type="line"/>
    </contour>
    <contour>
      <point x="172.66" y="223.09" type="line"/>
      <point x="478.84" y="223.09" type="line"/>
      <point x="566.18" y="-3.05176e-05" type="line"/>
      <point x="640.5" y="-3.05176e-05" type="line"/>
      <point x="366.45" y="700" type="line"/>
      <point x="285.06" y="700" type="line"/>
      <point x="11.0001" y="0" type="line"/>
      <point x="85.3201" y="0" type="line"/>
    </contour>
    <contour>
      <point x="325.76" y="614.12" type="line"/>
      <point x="453.79" y="287.09" type="line"/>
      <point x="197.72" y="287.09" type="line"/>
    </contour>
  </outline>
</glyph>
<glyph name="Atilde" format="1">
  <advance width="653"/>
  <unicode hex="00C3"/>
  <outline>
    <contour>
      <point x="427.67" y="873.08" type="line"/>
      <point x="433.28" y="853.19"/>
      <point x="437.63" y="830.25"/>
      <point x="413.98" y="830.25" type="curve" smooth="yes"/>
      <point x="371.47" y="830.25"/>
      <point x="315.92" y="890.05"/>
      <point x="252.81" y="884.6" type="curve" smooth="yes"/>
      <point x="208.67" y="880.79"/>
      <point x="174.19" y="844.66"/>
      <point x="159.92" y="798.09" type="curve"/>
      <point x="213.22" y="775.19" type="line"/>
      <point x="221.61" y="802.55"/>
      <point x="231.99" y="824.77"/>
      <point x="256.34" y="826.88" type="curve" smooth="yes"/>
      <point x="305.16" y="831.08"/>
      <point x="358.26" y="766.61"/>
      <point x="419.38" y="766.61" type="curve" smooth="yes"/>
      <point x="462.66" y="766.61"/>
      <point x="504.38" y="792.88"/>
      <point x="492.17" y="873.08" type="curve"/>
    </contour>
    <contour>
      <point x="172.66" y="223.09" type="line"/>
      <point x="478.84" y="223.09" type="line"/>
      <point x="566.18" y="-9.15527e-05" type="line"/>
      <point x="640.5" y="-9.15527e-05" type="line"/>
      <point x="366.45" y="700" type="line"/>
      <point x="285.06" y="700" type="line"/>
      <point x="10.9999" y="-0.00012207" type="line"/>
      <point x="85.3199" y="-0.00012207" type="line"/>
    </contour>
    <contour>
      <point x="325.76" y="614.12" type="line"/>
      <point x="453.79" y="287.09" type="line"/>
      <point x="197.72" y="287.09" type="line"/>
    </contour>
  </outline>
</glyph>
<glyph name="Adieresis" format="1">
  <advance width="653"/>
  <unicode hex="00C4"/>
  <outline>
    <contour>
      <point x="140.78" y="833.79"/>
      <point x="162.25" y="855.25"/>
      <point x="187.27" y="855.25" type="curve" smooth="yes"/>
      <point x="212.3" y="855.25"/>
      <point x="233.76" y="833.78"/>
      <point x="233.76" y="808.75" type="curve" smooth="yes"/>
      <point x="233.76" y="783.73"/>
      <point x="212.3" y="762.26"/>
      <point x="187.27" y="762.26" type="curve" smooth="yes"/>
      <point x="162.25" y="762.26"/>
      <point x="140.78" y="783.72"/>
      <point x="140.78" y="808.75" type="curve" smooth="yes"/>
    </contour>
    <contour>
      <point x="420.12" y="833.79"/>
      <point x="441.59" y="855.25"/>
      <point x="466.61" y="855.25" type="curve" smooth="yes"/>
      <point x="491.64" y="855.25"/>
      <point x="513.1" y="833.78"/>
      <point x="513.1" y="808.75" type="curve" smooth="yes"/>
      <point x="513.1" y="783.73"/>
      <point x="491.64" y="762.26"/>
      <point x="466.61" y="762.26" type="curve" smooth="yes"/>
      <point x="441.59" y="762.26"/>
      <point x="420.12" y="783.72"/>
      <point x="420.12" y="808.75" type="curve" smooth="yes"/>
    </contour>
    <contour>
      <point x="172.66" y="223.09" type="line"/>
      <point x="478.84" y="223.09" type="line"/>
      <point x="566.18" y="-3.05176e-05" type="line"/>
      <point x="640.5" y="-3.05176e-05" type="line"/>
      <point x="366.45" y="700" type="line"/>
      <point x="285.06" y="700" type="line"/>
      <point x="10.9999" y="0" type="line"/>
      <point x="85.3199" y="0" type="line"/>
    </contour>
    <contour>
      <point x="325.76" y="614.12" type="line"/>
      <point x="453.79" y="287.09" type="line"/>
      <point x="197.72" y="287.09" type="line"/>
    </contour>
  </outline>
</glyph>
<glyph name="Aring" format="1">
  <advance width="653"/>
  <unicode hex="00C5"/>
  <outline>
    <contour>
      <point x="640.5" y="0" type="line"/>
      <point x="373.87" y="681.04" type="line"/>
      <point x="430.25" y="700.69"/>
      <point x="470.43" y="754.14"/>
      <point x="470.43" y="817.43" type="curve" smooth="yes"/>
      <point x="470.43" y="897.52"/>
      <point x="406.09" y="961.86"/>
      <point x="326" y="961.86" type="curve" smooth="yes"/>
      <point x="245.91" y="961.86"/>
      <point x="181.57" y="897.52"/>
      <point x="181.57" y="817.43" type="curve" smooth="yes"/>
      <point x="181.57" y="754.3"/>
      <point x="221.54" y="700.96"/>
      <point x="277.7" y="681.2" type="curve"/>
      <point x="11" y="-6.10352e-05" type="line"/>
      <point x="85.32" y="-6.10352e-05" type="line"/>
      <point x="172.66" y="223.09" type="line"/>
      <point x="478.84" y="223.09" type="line"/>
      <point x="566.18" y="-6.10352e-05" type="line"/>
    </contour>
    <contour>
      <point x="235.57" y="867.11"/>
      <point x="276.33" y="907.86"/>
      <point x="326" y="907.86" type="curve" smooth="yes"/>
      <point x="375.68" y="907.86"/>
      <point x="416.43" y="867.11"/>
      <point x="416.43" y="817.43" type="curve" smooth="yes"/>
      <point x="416.43" y="767.76"/>
      <point x="375.68" y="727"/>
      <point x="326" y="727" type="curve" smooth="yes"/>
      <point x="276.33" y="727"/>
      <point x="235.57" y="767.76"/>
      <point x="235.57" y="817.43" type="curve" smooth="yes"/>
    </contour>
    <contour>
      <point x="453.79" y="287.09" type="line"/>
      <point x="197.72" y="287.09" type="line"/>
      <point x="325.76" y="614.12" type="line"/>
    </contour>
  </outline>
</glyph>
<glyph name="Iacute" format="1">
  <advance width="242"/>
  <unicode hex="00CD"/>
  <outline>
    <contour>
      <point x="21.11" y="814.05" type="line"/>
      <point x="36.88" y="754" type="line"/>
      <point x="239.98" y="833.53" type="line"/>
      <point x="217.85" y="908.42" type="line"/>
    </contour>
    <contour>
      <point x="156" y="6.10352e-05" type="line"/>
      <point x="156" y="700.07" type="line"/>
      <point x="86" y="700.07" type="line"/>
      <point x="86" y="6.10352e-05" type="line"/>
    </contour>
  </outline>
</glyph>
<glyph name="Icircumflex" format="1">
  <advance width="242"/>
  <unicode hex="00CE"/>
  <outline>
    <contour>
      <point x="120.85" y="824.86" type="line"/>
      <point x="301.83" y="754" type="line"/>
      <point x="317.59" y="814.05" type="line"/>
      <point x="120.85" y="908.42" type="line"/>
      <point x="-75.89" y="814.05" type="line"/>
      <point x="-60.13" y="754" type="line"/>
    </contour>
    <contour>
      <point x="156" y="0" type="line"/>
      <point x="156" y="700.07" type="line"/>
      <point x="86" y="700.07" type="line"/>
      <point x="86" y="0" type="line"/>
    </contour>
  </outline>
</glyph>
<glyph name="Eth" format="1">
  <advance width="721"/>
  <unicode hex="00D0"/>
  <outline>
    <contour>
      <point x="176" y="700.32" type="line"/>
      <point x="176" y="357.37" type="line"/>
      <point x="20.03" y="357.37" type="line"/>
      <point x="20.03" y="295.37" type="line"/>
      <point x="176" y="295.37" type="line"/>
      <point x="176" y="0" type="line"/>
      <point x="318.49" y="0" type="line" smooth="yes"/>
      <point x="554.81" y="0"/>
      <point x="669.4" y="149.13"/>
      <point x="669.4" y="350.33" type="curve" smooth="yes"/>
      <point x="669.4" y="552.96"/>
      <point x="562.36" y="700.32"/>
      <point x="312.77" y="700.32" type="curve" smooth="yes"/>
    </contour>
    <contour>
      <point x="246" y="64" type="line"/>
      <point x="246" y="295.37" type="line"/>
      <point x="385.82" y="295.37" type="line"/>
      <point x="385.82" y="357.37" type="line"/>
      <point x="246" y="357.37" type="line"/>
      <point x="246" y="636.32" type="line"/>
      <point x="312.77" y="636.32" type="line" smooth="yes"/>
      <point x="516.99" y="636.32"/>
      <point x="599.4" y="525.86"/>
      <point x="599.4" y="350.33" type="curve" smooth="yes"/>
      <point x="599.4" y="177.15"/>
      <point x="510.62" y="64"/>
      <point x="318.49" y="64" type="curve" smooth="yes"/>
    </contour>
  </outline>
</glyph>
<glyph name="Ntilde" format="1">
  <advance width="725"/>
  <unicode hex="00D1"/>
  <outline>
    <contour>
      <point x="463.67" y="873.08" type="line"/>
      <point x="469.28" y="853.19"/>
      <point x="473.63" y="830.25"/>
      <point x="449.98" y="830.25" type="curve" smooth="yes"/>
      <point x="407.47" y="830.25"/>
      <point x="351.92" y="890.05"/>
      <point x="288.81" y="884.6" type="curve" smooth="yes"/>
      <point x="244.67" y="880.79"/>
      <point x="210.19" y="844.66"/>
      <point x="195.92" y="798.09" type="curve"/>
      <point x="249.22" y="775.19" type="line"/>
      <point x="257.61" y="802.55"/>
      <point x="267.99" y="824.77"/>
      <point x="292.34" y="826.88" type="curve" smooth="yes"/>
      <point x="341.16" y="831.08"/>
      <point x="394.26" y="766.61"/>
      <point x="455.38" y="766.61" type="curve" smooth="yes"/>
      <point x="498.66" y="766.61"/>
      <point x="540.38" y="792.88"/>
      <point x="528.17" y="873.08" type="curve"/>
    </contour>
    <contour>
      <point x="638.5" y="-0.00012207" type="line"/>
      <point x="638.5" y="700" type="line"/>
      <point x="568.23" y="700" type="line"/>
      <point x="568.23" y="111.04" type="line"/>
      <point x="163.5" y="700" type="line"/>
      <point x="86" y="700" type="line"/>
      <point x="86" y="0.309875" type="line"/>
      <point x="155.73" y="0.309875" type="line"/>
      <point x="155.73" y="590.82" type="line"/>
      <point x="562.2" y="-0.00012207" type="line"/>
    </contour>
  </outline>
</glyph>
<glyph name="Otilde" format="1">
  <advance width="775"/>
  <unicode hex="00D5"/>
  <outline>
    <contour>
      <point x="488.67" y="873.08" type="line"/>
      <point x="494.28" y="853.19"/>
      <point x="498.63" y="830.25"/>
      <point x="474.98" y="830.25" type="curve" smooth="yes"/>
      <point x="432.47" y="830.25"/>
      <point x="376.92" y="890.05"/>
      <point x="313.81" y="884.6" type="curve" smooth="yes"/>
      <point x="269.67" y="880.79"/>
      <point x="235.19" y="844.66"/>
      <point x="220.92" y="798.09" type="curve"/>
      <point x="274.22" y="775.19" type="line"/>
      <point x="282.61" y="802.55"/>
      <point x="292.99" y="824.77"/>
      <point x="317.34" y="826.88" type="curve" smooth="yes"/>
      <point x="366.16" y="831.08"/>
      <point x="419.26" y="766.61"/>
      <point x="480.38" y="766.61" type="curve" smooth="yes"/>
      <point x="523.66" y="766.61"/>
      <point x="565.38" y="792.88"/>
      <point x="553.17" y="873.08" type="curve"/>
    </contour>
    <contour>
      <point x="189.63" y="702.48"/>
      <point x="36" y="542.3"/>
      <point x="36" y="351.22" type="curve" smooth="yes"/>
      <point x="36" y="157.22"/>
      <point x="193.25" y="-0.000152588"/>
      <point x="387.26" y="-0.000152588" type="curve" smooth="yes"/>
      <point x="557.12" y="-0.000152588"/>
      <point x="738.5" y="129.76"/>
      <point x="738.5" y="351.22" type="curve" smooth="yes"/>
      <point x="738.5" y="545.21"/>
      <point x="581.27" y="702.48"/>
      <point x="387.26" y="702.48" type="curve" smooth="yes"/>
    </contour>
    <contour>
      <point x="540.73" y="638.48"/>
      <point x="668.5" y="510.68"/>
      <point x="668.5" y="351.22" type="curve" smooth="yes"/>
      <point x="668.5" y="170.68"/>
      <point x="523.34" y="63.9999"/>
      <point x="387.26" y="63.9999" type="curve" smooth="yes"/>
      <point x="233.78" y="63.9999"/>
      <point x="106" y="191.77"/>
      <point x="106" y="351.22" type="curve" smooth="yes"/>
      <point x="106" y="508.53"/>
      <point x="231.04" y="638.48"/>
      <point x="387.26" y="638.48" type="curve" smooth="yes"/>
    </contour>
  </outline>
</glyph>
<glyph name="Oslash" format="1">
  <advance width="774"/>
  <unicode hex="00D8"/>
  <outline>
    <contour>
      <point x="546.02" y="766.47" type="line"/>
      <point x="484.74" y="784.94" type="line"/>
      <point x="457.75" y="695.4" type="line"/>
      <point x="434.98" y="700.04"/>
      <point x="411.4" y="702.48"/>
      <point x="387.26" y="702.48" type="curve" smooth="yes"/>
      <point x="189.63" y="702.48"/>
      <point x="35.9999" y="542.3"/>
      <point x="35.9999" y="351.22" type="curve" smooth="yes"/>
      <point x="35.9999" y="203.7"/>
      <point x="126.93" y="77.44"/>
      <point x="255.81" y="25.41" type="curve"/>
      <point x="230.48" y="-58.63" type="line"/>
      <point x="291.75" y="-76.63" type="line"/>
      <point x="316.98" y="7.02998" type="line"/>
      <point x="339.69" y="2.41998"/>
      <point x="363.19" y="-1.52588e-05"/>
      <point x="387.26" y="-1.52588e-05" type="curve" smooth="yes"/>
      <point x="557.12" y="-1.52588e-05"/>
      <point x="738.5" y="129.76"/>
      <point x="738.5" y="351.22" type="curve" smooth="yes"/>
      <point x="738.5" y="498.62"/>
      <point x="647.73" y="624.82"/>
      <point x="519.02" y="676.93" type="curve"/>
    </contour>
    <contour>
      <point x="274.72" y="88.1499" type="line"/>
      <point x="176.05" y="132.47"/>
      <point x="106" y="233.16"/>
      <point x="106" y="351.22" type="curve" smooth="yes"/>
      <point x="106" y="508.53"/>
      <point x="231.04" y="638.48"/>
      <point x="387.26" y="638.48" type="curve" smooth="yes"/>
      <point x="404.94" y="638.48"/>
      <point x="422.27" y="636.78"/>
      <point x="439.11" y="633.54" type="curve"/>
    </contour>
    <contour>
      <point x="500.09" y="614.19" type="line"/>
      <point x="598.6" y="569.79"/>
      <point x="668.5" y="469.17"/>
      <point x="668.5" y="351.22" type="curve" smooth="yes"/>
      <point x="668.5" y="170.68"/>
      <point x="523.34" y="63.9999"/>
      <point x="387.26" y="63.9999" type="curve" smooth="yes"/>
      <point x="369.66" y="63.9999"/>
      <point x="352.41" y="65.6799"/>
      <point x="335.64" y="68.8899" type="curve"/>
    </contour>
  </outline>
</glyph>
<glyph name="Ucircumflex" format="1">
  <advance width="661"/>
  <unicode hex="00DB"/>
  <outline>
    <contour>
      <point x="330.85" y="824.86" type="line"/>
      <point x="511.83" y="754" type="line"/>
      <point x="527.59" y="814.05" type="line"/>
      <point x="330.85" y="908.42" type="line"/>
      <point x="134.11" y="814.05" type="line"/>
      <point x="149.87" y="754" type="line"/>
    </contour>
    <contour>
      <point x="139" y="699.8" type="line"/>
      <point x="69.06" y="699.8" type="line"/>
      <point x="69.06" y="270.08" type="line"/>
      <point x="69.06" y="270.23"/>
      <point x="58.66" y="0.419983"/>
      <point x="322.55" y="-9.00002" type="curve"/>
      <point x="343.2" y="-9.00002" type="line"/>
      <point x="607.35" y="0.419983"/>
      <point x="596.96" y="270.23"/>
      <point x="596.96" y="270.22" type="curve"/>
      <point x="596.96" y="699.8" type="line"/>
      <point x="526.96" y="699.8" type="line"/>
      <point x="526.96" y="259.53" type="line" smooth="yes"/>
      <point x="525.72" y="219.24"/>
      <point x="510.26" y="61.49"/>
      <point x="341.88" y="54.6" type="curve"/>
      <point x="324.13" y="54.6" type="line"/>
      <point x="147.1" y="61.85"/>
      <point x="139.1" y="235.87"/>
      <point x="139" y="264.78" type="curve"/>
    </contour>
  </outline>
</glyph>
<glyph name="Udieresis" format="1">
  <advance width="661"/>
  <unicode hex="00DC"/>
  <outline>
    <contour>
      <point x="145.78" y="833.79"/>
      <point x="167.25" y="855.25"/>
      <point x="192.27" y="855.25" type="curve" smooth="yes"/>
      <point x="217.3" y="855.25"/>
      <point x="238.76" y="833.78"/>
      <point x="238.76" y="808.75" type="curve" smooth="yes"/>
      <point x="238.76" y="783.73"/>
      <point x="217.3" y="762.26"/>
      <point x="192.27" y="762.26" type="curve" smooth="yes"/>
      <point x="167.25" y="762.26"/>
      <point x="145.78" y="783.72"/>
      <point x="145.78" y="808.75" type="curve" smooth="yes"/>
    </contour>
    <contour>
      <point x="425.12" y="833.79"/>
      <point x="446.59" y="855.25"/>
      <point x="471.61" y="855.25" type="curve" smooth="yes"/>
      <point x="496.64" y="855.25"/>
      <point x="518.1" y="833.78"/>
      <point x="518.1" y="808.75" type="curve" smooth="yes"/>
      <point x="518.1" y="783.73"/>
      <point x="496.64" y="762.26"/>
      <point x="471.61" y="762.26" type="curve" smooth="yes"/>
      <point x="446.59" y="762.26"/>
      <point x="425.12" y="783.72"/>
      <point x="425.12" y="808.75" type="curve" smooth="yes"/>
    </contour>
    <contour>
      <point x="139" y="699.8" type="line"/>
      <point x="69.06" y="699.8" type="line"/>
      <point x="69.06" y="270.08" type="line"/>
      <point x="69.06" y="270.23"/>
      <point x="58.66" y="0.419983"/>
      <point x="322.55" y="-9.00002" type="curve"/>
      <point x="343.2" y="-9.00002" type="line"/>
      <point x="607.35" y="0.419983"/>
      <point x="596.96" y="270.23"/>
      <point x="596.96" y="270.22" type="curve"/>
      <point x="596.96" y="699.8" type="line"/>
      <point x="526.96" y="699.8" type="line"/>
      <point x="526.96" y="259.53" type="line" smooth="yes"/>
      <point x="525.72" y="219.24"/>
      <point x="510.26" y="61.49"/>
      <point x="341.88" y="54.6" type="curve"/>
      <point x="324.13" y="54.6" type="line"/>
      <point x="147.1" y="61.85"/>
      <point x="139.1" y="235.87"/>
      <point x="139" y="264.78" type="curve"/>
    </contour>
  </outline>
</glyph>
<glyph name="Thorn" format="1">
  <advance width="600"/>
  <unicode hex="00DE"/>
  <outline>
    <contour>
      <point x="142.81" y="596.92" type="line"/>
      <point x="142.81" y="693.55" type="line"/>
      <point x="72.81" y="693.55" type="line"/>
      <point x="72.81" y="0.22998" type="line"/>
      <point x="142.81" y="0.22998" type="line"/>
      <point x="142.81" y="164.39" type="line"/>
      <point x="329.87" y="164.39" type="line" smooth="yes"/>
      <point x="451.07" y="164.39"/>
      <point x="549.14" y="262.46"/>
      <point x="549.14" y="380.65" type="curve" smooth="yes"/>
      <point x="549.14" y="437.77"/>
      <point x="523.56" y="494.92"/>
      <point x="484.93" y="533.55" type="curve" smooth="yes"/>
      <point x="448.13" y="570.36"/>
      <point x="388.83" y="596.92"/>
      <point x="329.87" y="596.92" type="curve" smooth="yes"/>
    </contour>
    <contour>
      <point x="142.81" y="228.39" type="line"/>
      <point x="142.81" y="532.92" type="line"/>
      <point x="329.87" y="532.92" type="line" smooth="yes"/>
      <point x="370.61" y="532.92"/>
      <point x="406.99" y="516.74"/>
      <point x="435.44" y="488.3" type="curve" smooth="yes"/>
      <point x="462.01" y="461.73"/>
      <point x="479.14" y="423.19"/>
      <point x="479.14" y="380.65" type="curve" smooth="yes"/>
      <point x="479.14" y="295.24"/>
      <point x="412.29" y="228.39"/>
      <point x="329.87" y="228.39" type="curve" smooth="yes"/>
    </contour>
  </outline>
</glyph>
<glyph name="germandbls" format="1">
  <advance width="600"/>
  <unicode hex="00DF"/>
  <outline>
    <contour>
      <point x="54.63" y="0" type="line"/>
      <point x="124.62" y="0" type="line"/>
      <point x="124.62" y="510.31" type="line" smooth="yes"/>
      <point x="124.62" y="559.03"/>
      <point x="131.84" y="656.94"/>
      <point x="261.84" y="656.94" type="curve" smooth="yes"/>
      <point x="387.41" y="656.94"/>
      <point x="404.43" y="579.98"/>
      <point x="404.43" y="532.14" type="curve" smooth="yes"/>
      <point x="404.43" y="485.11"/>
      <point x="383.34" y="415.45"/>
      <point x="308.36" y="411.53" type="curve" smooth="yes"/>
      <point x="301.73" y="411.37" type="line"/>
      <point x="272.6" y="411.37" type="line"/>
      <point x="272.6" y="341.29" type="line"/>
      <point x="301.65" y="341.29" type="line" smooth="yes"/>
      <point x="403.34" y="341.19"/>
      <point x="447.87" y="280.63"/>
      <point x="447.87" y="205.81" type="curve" smooth="yes"/>
      <point x="447.87" y="130.74"/>
      <point x="387.09" y="70"/>
      <point x="311.88" y="70" type="curve" smooth="yes"/>
      <point x="285.02" y="70"/>
      <point x="262.88" y="76.54"/>
      <point x="241.22" y="89.73" type="curve"/>
      <point x="204.81" y="29.95" type="line"/>
      <point x="236.01" y="10.95"/>
      <point x="272.67" y="1.52588e-05"/>
      <point x="311.88" y="1.52588e-05" type="curve" smooth="yes"/>
      <point x="425.65" y="1.52588e-05"/>
      <point x="517.87" y="92.15"/>
      <point x="517.87" y="205.81" type="curve" smooth="yes"/>
      <point x="517.87" y="282.19"/>
      <point x="476.22" y="348.86"/>
      <point x="414.37" y="384.38" type="curve"/>
      <point x="459.44" y="427.94"/>
      <point x="474.43" y="494.04"/>
      <point x="474.43" y="532.14" type="curve" smooth="yes"/>
      <point x="474.43" y="588.99"/>
      <point x="446.82" y="726.94"/>
      <point x="261.84" y="726.94" type="curve" smooth="yes"/>
      <point x="66.81" y="726.94"/>
      <point x="54.63" y="561.6"/>
      <point x="54.63" y="510.31" type="curve" smooth="yes"/>
    </contour>
  </outline>
</glyph>
<glyph name="atilde" format="1">
  <advance width="516"/>
  <unicode hex="00E3"/>
  <outline>
    <contour>
      <point x="364.67" y="673.08" type="line"/>
      <point x="370.28" y="653.19"/>
      <point x="374.63" y="630.25"/>
      <point x="350.98" y="630.25" type="curve" smooth="yes"/>
      <point x="308.47" y="630.25"/>
      <point x="252.92" y="690.05"/>
      <point x="189.81" y="684.6" type="curve" smooth="yes"/>
      <point x="145.67" y="680.79"/>
      <point x="111.19" y="644.66"/>
      <point x="96.92" y="598.09" type="curve"/>
      <point x="150.22" y="575.19" type="line"/>
      <point x="158.61" y="602.55"/>
      <point x="168.99" y="624.77"/>
      <point x="193.34" y="626.88" type="curve" smooth="yes"/>
      <point x="242.16" y="631.08"/>
      <point x="295.26" y="566.61"/>
      <point x="356.38" y="566.61" type="curve" smooth="yes"/>
      <point x="399.66" y="566.61"/>
      <point x="441.38" y="592.88"/>
      <point x="429.17" y="673.08" type="curve"/>
    </contour>
    <contour>
      <point x="132.53" y="393.75" type="line"/>
      <point x="159.04" y="417.13"/>
      <point x="200.93" y="444.88"/>
      <point x="253.62" y="444.88" type="curve" smooth="yes"/>
      <point x="322.01" y="444.88"/>
      <point x="370.65" y="402.86"/>
      <point x="370.65" y="329.08" type="curve" smooth="yes"/>
      <point x="370.65" y="291.83" type="line"/>
      <point x="339.62" y="298.92"/>
      <point x="302.6" y="302.55"/>
      <point x="269.96" y="302.55" type="curve" smooth="yes"/>
      <point x="154.01" y="302.55"/>
      <point x="47" y="266.59"/>
      <point x="47" y="136.82" type="curve" smooth="yes"/>
      <point x="47" y="71.4398"/>
      <point x="97.41" y="-6.00017"/>
      <point x="207.53" y="-6.00017" type="curve" smooth="yes"/>
      <point x="274.37" y="-6.00017"/>
      <point x="330.33" y="23.0898"/>
      <point x="370.65" y="67.8498" type="curve"/>
      <point x="370.65" y="-0.000183105" type="line"/>
      <point x="440.65" y="-0.000183105" type="line"/>
      <point x="440.65" y="329.08" type="line" smooth="yes"/>
      <point x="440.65" y="438.69"/>
      <point x="356.87" y="508.88"/>
      <point x="253.62" y="508.88" type="curve" smooth="yes"/>
      <point x="164.54" y="508.88"/>
      <point x="109.14" y="463.52"/>
      <point x="83.65" y="436.46" type="curve"/>
    </contour>
    <contour>
      <point x="317.16" y="245.85"/>
      <point x="347.55" y="241.81"/>
      <point x="370.65" y="237.47" type="curve"/>
      <point x="370.65" y="122.96"/>
      <point x="314.47" y="57.5999"/>
      <point x="207.53" y="57.5999" type="curve" smooth="yes"/>
      <point x="144.96" y="57.5999"/>
      <point x="117" y="96.4099"/>
      <point x="117" y="136.82" type="curve" smooth="yes"/>
      <point x="117" y="220.29"/>
      <point x="179.63" y="245.85"/>
      <point x="283.96" y="245.85" type="curve" smooth="yes"/>
    </contour>
  </outline>
</glyph>
<glyph name="igrave" format="1">
  <advance width="176"/>
  <unicode hex="00EC"/>
  <outline>
    <contour>
      <point x="-15.72" y="633.53" type="line"/>
      <point x="187.39" y="554" type="line"/>
      <point x="203.16" y="614.05" type="line"/>
      <point x="6.41" y="708.42" type="line"/>
    </contour>
    <contour>
      <point x="120.06" y="0" type="line"/>
      <point x="120.06" y="502.34" type="line"/>
      <point x="56.06" y="502.34" type="line"/>
      <point x="56.06" y="0" type="line"/>
    </contour>
  </outline>
</glyph>
<glyph name="iacute" format="1">
  <advance width="176"/>
  <unicode hex="00ED"/>
  <outline>
    <contour>
      <point x="-12.11" y="614.05" type="line"/>
      <point x="3.66" y="554" type="line"/>
      <point x="206.77" y="633.53" type="line"/>
      <point x="184.64" y="708.42" type="line"/>
    </contour>
    <contour>
      <point x="120.06" y="6.10352e-05" type="line"/>
      <point x="120.06" y="502.34" type="line"/>
      <point x="56.06" y="502.34" type="line"/>
      <point x="56.06" y="6.10352e-05" type="line"/>
    </contour>
  </outline>
</glyph>
<glyph name="icircumflex" format="1">
  <advance width="176"/>
  <unicode hex="00EE"/>
  <outline>
    <contour>
      <point x="87.63" y="624.86" type="line"/>
      <point x="268.61" y="554" type="line"/>
      <point x="284.37" y="614.05" type="line"/>
      <point x="87.63" y="708.42" type="line"/>
      <point x="-109.11" y="614.05" type="line"/>
      <point x="-93.35" y="554" type="line"/>
    </contour>
    <contour>
      <point x="120.06" y="0" type="line"/>
      <point x="120.06" y="502.34" type="line"/>
      <point x="56.06" y="502.34" type="line"/>
      <point x="56.06" y="0" type="line"/>
    </contour>
  </outline>
</glyph>
<glyph name="odieresis" format="1">
  <advance width="591"/>
  <unicode hex="00F6"/>
  <outline>
    <contour>
      <point x="111.37" y="632.33"/>
      <point x="132.84" y="653.79"/>
      <point x="157.86" y="653.79" type="curve" smooth="yes"/>
      <point x="182.88" y="653.79"/>
      <point x="204.35" y="632.33"/>
      <point x="204.35" y="607.3" type="curve" smooth="yes"/>
      <point x="204.35" y="582.27"/>
      <point x="182.89" y="560.8"/>
      <point x="157.86" y="560.8" type="curve" smooth="yes"/>
      <point x="132.83" y="560.8"/>
      <point x="111.37" y="582.27"/>
      <point x="111.37" y="607.3" type="curve" smooth="yes"/>
    </contour>
    <contour>
      <point x="390.71" y="632.33"/>
      <point x="412.18" y="653.79"/>
      <point x="437.2" y="653.79" type="curve" smooth="yes"/>
      <point x="462.22" y="653.79"/>
      <point x="483.69" y="632.33"/>
      <point x="483.69" y="607.3" type="curve" smooth="yes"/>
      <point x="483.69" y="582.27"/>
      <point x="462.23" y="560.8"/>
      <point x="437.2" y="560.8" type="curve" smooth="yes"/>
      <point x="412.17" y="560.8"/>
      <point x="390.71" y="582.27"/>
      <point x="390.71" y="607.3" type="curve" smooth="yes"/>
    </contour>
    <contour>
      <point x="552.96" y="401.92"/>
      <point x="437.46" y="517.84"/>
      <point x="294.98" y="517.84" type="curve" smooth="yes"/>
      <point x="153.64" y="517.84"/>
      <point x="37" y="402.48"/>
      <point x="37" y="258.92" type="curve" smooth="yes"/>
      <point x="37" y="115.93"/>
      <point x="152.5" y="-7.62939e-05"/>
      <point x="294.98" y="-7.62939e-05" type="curve" smooth="yes"/>
      <point x="438.22" y="-7.62939e-05"/>
      <point x="552.96" y="117.29"/>
      <point x="552.96" y="258.92" type="curve" smooth="yes"/>
    </contour>
    <contour>
      <point x="482.96" y="151.34"/>
      <point x="397.32" y="63.9999"/>
      <point x="294.98" y="63.9999" type="curve" smooth="yes"/>
      <point x="193.01" y="63.9999"/>
      <point x="107" y="150.31"/>
      <point x="107" y="258.92" type="curve" smooth="yes"/>
      <point x="107" y="367.82"/>
      <point x="193.84" y="453.85"/>
      <point x="294.98" y="453.85" type="curve" smooth="yes"/>
      <point x="396.95" y="453.85"/>
      <point x="482.96" y="367.54"/>
      <point x="482.96" y="258.92" type="curve" smooth="yes"/>
    </contour>
  </outline>
</glyph>
<glyph name="divide" format="1">
  <advance width="600"/>
  <unicode hex="00F7"/>
  <outline>
    <contour>
      <point x="334.67" y="457.54"/>
      <point x="362.75" y="485.62"/>
      <point x="362.75" y="520.27" type="curve" smooth="yes"/>
      <point x="362.75" y="554.91"/>
      <point x="334.67" y="582.99"/>
      <point x="300.02" y="582.99" type="curve" smooth="yes"/>
      <point x="265.38" y="582.99"/>
      <point x="237.3" y="554.91"/>
      <point x="237.3" y="520.27" type="curve" smooth="yes"/>
      <point x="237.3" y="485.62"/>
      <point x="265.38" y="457.54"/>
      <point x="300.02" y="457.54" type="curve" smooth="yes"/>
    </contour>
    <contour>
      <point x="36.13" y="339.08" type="line"/>
      <point x="36.13" y="275.08" type="line"/>
      <point x="575.25" y="275.08" type="line"/>
      <point x="575.25" y="339.08" type="line"/>
    </contour>
    <contour>
      <point x="334.67" y="0"/>
      <point x="362.75" y="28.08"/>
      <point x="362.75" y="62.73" type="curve" smooth="yes"/>
      <point x="362.75" y="97.37"/>
      <point x="334.67" y="125.45"/>
      <point x="300.02" y="125.45" type="curve" smooth="yes"/>
      <point x="265.38" y="125.45"/>
      <point x="237.3" y="97.37"/>
      <point x="237.3" y="62.73" type="curve" smooth="yes"/>
      <point x="237.3" y="28.08"/>
      <point x="265.38" y="0"/>
      <point x="300.02" y="0" type="curve" smooth="yes"/>
    </contour>
  </outline>
</glyph>
<glyph name="ugrave" format="1">
  <advance width="568"/>
  <unicode hex="00F9"/>
  <outline>
    <contour>
      <point x="383.61" y="554" type="line"/>
      <point x="399.37" y="614.05" type="line"/>
      <point x="202.63" y="708.42" type="line"/>
      <point x="180.5" y="633.53" type="line"/>
    </contour>
    <contour>
      <point x="491.65" y="507.37" type="line"/>
      <point x="421.65" y="507.37" type="line"/>
      <point x="421.65" y="182.02" type="line"/>
      <point x="412.14" y="124.15"/>
      <point x="361.08" y="57.6"/>
      <point x="280.72" y="57.6" type="curve" smooth="yes"/>
      <point x="193.83" y="57.6"/>
      <point x="136" y="114.09"/>
      <point x="136" y="224.39" type="curve" smooth="yes"/>
      <point x="136" y="507.37" type="line"/>
      <point x="66" y="507.37" type="line"/>
      <point x="66" y="224.39" type="line" smooth="yes"/>
      <point x="66" y="81.7299"/>
      <point x="155.03" y="-6.00005"/>
      <point x="280.72" y="-6.00005" type="curve" smooth="yes"/>
      <point x="336.74" y="-6.00005"/>
      <point x="385.62" y="20.11"/>
      <point x="421.65" y="63.09" type="curve"/>
      <point x="421.65" y="0.0399475" type="line"/>
      <point x="491.65" y="0.0399475" type="line"/>
    </contour>
  </outline>
</glyph>
<glyph name="uacute" format="1">
  <advance width="568"/>
  <unicode hex="00FA"/>
  <outline>
    <contour>
      <point x="199.88" y="554" type="line"/>
      <point x="402.98" y="633.53" type="line"/>
      <point x="380.85" y="708.42" type="line"/>
      <point x="184.11" y="614.05" type="line"/>
    </contour>
    <contour>
      <point x="491.65" y="507.37" type="line"/>
      <point x="421.65" y="507.37" type="line"/>
      <point x="421.65" y="182.02" type="line"/>
      <point x="412.14" y="124.15"/>
      <point x="361.08" y="57.6001"/>
      <point x="280.72" y="57.6001" type="curve" smooth="yes"/>
      <point x="193.83" y="57.6001"/>
      <point x="136" y="114.09"/>
      <point x="136" y="224.39" type="curve" smooth="yes"/>
      <point x="136" y="507.37" type="line"/>
      <point x="66" y="507.37" type="line"/>
      <point x="66" y="224.39" type="line" smooth="yes"/>
      <point x="66" y="81.7301"/>
      <point x="155.03" y="-5.99992"/>
      <point x="280.72" y="-5.99992" type="curve" smooth="yes"/>
      <point x="336.74" y="-5.99992"/>
      <point x="385.62" y="20.1101"/>
      <point x="421.65" y="63.0901" type="curve"/>
      <point x="421.65" y="0.0400696" type="line"/>
      <point x="491.65" y="0.0400696" type="line"/>
    </contour>
  </outline>
</glyph>
<glyph name="ucircumflex" format="1">
  <advance width="568"/>
  <unicode hex="00FB"/>
  <outline>
    <contour>
      <point x="102.87" y="554" type="line"/>
      <point x="283.85" y="624.86" type="line"/>
      <point x="464.83" y="554" type="line"/>
      <point x="480.59" y="614.05" type="line"/>
      <point x="283.85" y="708.42" type="line"/>
      <point x="87.11" y="614.05" type="line"/>
    </contour>
    <contour>
      <point x="491.65" y="507.37" type="line"/>
      <point x="421.65" y="507.37" type="line"/>
      <point x="421.65" y="182.02" type="line"/>
      <point x="412.14" y="124.15"/>
      <point x="361.08" y="57.6"/>
      <point x="280.72" y="57.6" type="curve" smooth="yes"/>
      <point x="193.83" y="57.6"/>
      <point x="136" y="114.09"/>
      <point x="136" y="224.39" type="curve" smooth="yes"/>
      <point x="136" y="507.37" type="line"/>
      <point x="66" y="507.37" type="line"/>
      <point x="66" y="224.39" type="line" smooth="yes"/>
      <point x="66" y="81.73"/>
      <point x="155.03" y="-5.99998"/>
      <point x="280.72" y="-5.99998" type="curve" smooth="yes"/>
      <point x="336.74" y="-5.99998"/>
      <point x="385.62" y="20.11"/>
      <point x="421.65" y="63.09" type="curve"/>
      <point x="421.65" y="0.0400085" type="line"/>
      <point x="491.65" y="0.0400085" type="line"/>
    </contour>
  </outline>
</glyph>
<glyph name="udieresis" format="1">
  <advance width="568"/>
  <unicode hex="00FC"/>
  <outline>
    <contour>
      <point x="170.3" y="562.26"/>
      <point x="191.76" y="583.73"/>
      <point x="191.76" y="608.75" type="curve" smooth="yes"/>
      <point x="191.76" y="633.78"/>
      <point x="170.3" y="655.25"/>
      <point x="145.27" y="655.25" type="curve" smooth="yes"/>
      <point x="120.25" y="655.25"/>
      <point x="98.78" y="633.79"/>
      <point x="98.78" y="608.75" type="curve" smooth="yes"/>
      <point x="98.78" y="583.72"/>
      <point x="120.25" y="562.26"/>
      <point x="145.27" y="562.26" type="curve" smooth="yes"/>
    </contour>
    <contour>
      <point x="449.64" y="562.26"/>
      <point x="471.1" y="583.73"/>
      <point x="471.1" y="608.75" type="curve" smooth="yes"/>
      <point x="471.1" y="633.78"/>
      <point x="449.64" y="655.25"/>
      <point x="424.61" y="655.25" type="curve" smooth="yes"/>
      <point x="399.59" y="655.25"/>
      <point x="378.12" y="633.79"/>
      <point x="378.12" y="608.75" type="curve" smooth="yes"/>
      <point x="378.12" y="583.72"/>
      <point x="399.59" y="562.26"/>
      <point x="424.61" y="562.26" type="curve" smooth="yes"/>
    </contour>
    <contour>
      <point x="491.65" y="507.37" type="line"/>
      <point x="421.65" y="507.37" type="line"/>
      <point x="421.65" y="182.02" type="line"/>
      <point x="412.14" y="124.15"/>
      <point x="361.08" y="57.5999"/>
      <point x="280.72" y="57.5999" type="curve" smooth="yes"/>
      <point x="193.83" y="57.5999"/>
      <point x="136" y="114.09"/>
      <point x="136" y="224.39" type="curve" smooth="yes"/>
      <point x="136" y="507.37" type="line"/>
      <point x="66" y="507.37" type="line"/>
      <point x="66" y="224.39" type="line" smooth="yes"/>
      <point x="66" y="81.7299"/>
      <point x="155.03" y="-6.00005"/>
      <point x="280.72" y="-6.00005" type="curve" smooth="yes"/>
      <point x="336.74" y="-6.00005"/>
      <point x="385.62" y="20.11"/>
      <point x="421.65" y="63.09" type="curve"/>
      <point x="421.65" y="0.0399475" type="line"/>
      <point x="491.65" y="0.0399475" type="line"/>
    </contour>
  </outline>
</glyph>
<glyph name="yacute" format="1">
  <advance width="593"/>
  <unicode hex="00FD"/>
  <outline>
    <contour>
      <point x="197.11" y="614.05" type="line"/>
      <point x="212.88" y="554" type="line"/>
      <point x="415.98" y="633.53" type="line"/>
      <point x="393.85" y="708.42" type="line"/>
    </contour>
    <contour>
      <point x="99.43" y="-200" type="line"/>
      <point x="178.57" y="-200" type="line"/>
      <point x="588.05" y="500" type="line"/>
      <point x="508.74" y="500" type="line"/>
      <point x="299.85" y="142.64" type="line"/>
      <point x="89.75" y="500" type="line"/>
      <point x="8.99997" y="500" type="line"/>
      <point x="260.24" y="74.8801" type="line"/>
    </contour>
  </outline>
</glyph>
<glyph name="thorn" format="1">
  <advance width="600"/>
  <unicode hex="00FE"/>
  <outline>
    <contour>
      <point x="157.61" y="739.84" type="line"/>
      <point x="87.61" y="739.84" type="line"/>
      <point x="87.61" y="395.25" type="line"/>
      <point x="87.6" y="86.42" type="line"/>
      <point x="87.61" y="-263" type="line"/>
      <point x="157.61" y="-263" type="line"/>
      <point x="157.61" y="24.9799" type="line"/>
      <point x="190.4" y="6.43996"/>
      <point x="232.48" y="-8.00005"/>
      <point x="280.82" y="-8.00005" type="curve" smooth="yes"/>
      <point x="423.76" y="-8.00005"/>
      <point x="529.92" y="108.53"/>
      <point x="529.92" y="247.35" type="curve" smooth="yes"/>
      <point x="529.92" y="386.17"/>
      <point x="423.76" y="504.07"/>
      <point x="280.82" y="504.07" type="curve" smooth="yes"/>
      <point x="234.89" y="504.07"/>
      <point x="192.86" y="490.46"/>
      <point x="157.61" y="467.23" type="curve"/>
    </contour>
    <contour>
      <point x="157.61" y="373.27" type="line"/>
      <point x="187.09" y="410.76"/>
      <point x="230.73" y="434.07"/>
      <point x="280.82" y="434.07" type="curve" smooth="yes"/>
      <point x="382.92" y="434.07"/>
      <point x="459.92" y="349.62"/>
      <point x="459.92" y="247.35" type="curve" smooth="yes"/>
      <point x="459.92" y="145.32"/>
      <point x="383.16" y="61.9999"/>
      <point x="280.82" y="61.9999" type="curve" smooth="yes"/>
      <point x="224.61" y="61.9999"/>
      <point x="178.37" y="90.7699"/>
      <point x="157.61" y="110.71" type="curve"/>
    </contour>
  </outline>
</glyph>
<glyph name="ydieresis" format="1">
  <advance width="593"/>
  <unicode hex="00FF"/>
  <outline>
    <contour>
      <point x="111.78" y="633.79"/>
      <point x="133.25" y="655.25"/>
      <point x="158.27" y="655.25" type="curve" smooth="yes"/>
      <point x="183.3" y="655.25"/>
      <point x="204.76" y="633.78"/>
      <point x="204.76" y="608.75" type="curve" smooth="yes"/>
      <point x="204.76" y="583.73"/>
      <point x="183.3" y="562.26"/>
      <point x="158.27" y="562.26" type="curve" smooth="yes"/>
      <point x="133.25" y="562.26"/>
      <point x="111.78" y="583.72"/>
      <point x="111.78" y="608.75" type="curve" smooth="yes"/>
    </contour>
    <contour>
      <point x="391.12" y="633.79"/>
      <point x="412.59" y="655.25"/>
      <point x="437.61" y="655.25" type="curve" smooth="yes"/>
      <point x="462.64" y="655.25"/>
      <point x="484.1" y="633.78"/>
      <point x="484.1" y="608.75" type="curve" smooth="yes"/>
      <point x="484.1" y="583.73"/>
      <point x="462.64" y="562.26"/>
      <point x="437.61" y="562.26" type="curve" smooth="yes"/>
      <point x="412.59" y="562.26"/>
      <point x="391.12" y="583.72"/>
      <point x="391.12" y="608.75" type="curve" smooth="yes"/>
    </contour>
    <contour>
      <point x="99.43" y="-200" type="line"/>
      <point x="178.57" y="-200" type="line"/>
      <point x="588.05" y="500" type="line"/>
      <point x="508.74" y="500" type="line"/>
      <point x="299.85" y="142.64" type="line"/>
      <point x="89.7499" y="500" type="line"/>
      <point x="8.99991" y="500" type="line"/>
      <point x="260.24" y="74.88" type="line"/>
    </contour>
  </outline>
</glyph>
<glyph name="lslash" format="1">
  <advance width="355"/>
  <unicode hex="0142"/>
  <outline>
    <contour>
      <point x="206.47" y="351.45" type="line"/>
      <point x="325.17" y="405.33" type="line"/>
      <point x="296.23" y="463.61" type="line"/>
      <point x="206.47" y="422.87" type="line"/>
      <point x="206.47" y="700" type="line"/>
      <point x="136.47" y="700" type="line"/>
      <point x="136.47" y="391.1" type="line"/>
      <point x="33" y="344.13" type="line"/>
      <point x="61.93" y="285.85" type="line"/>
      <point x="136.47" y="319.68" type="line"/>
      <point x="136.47" y="0" type="line"/>
      <point x="206.47" y="0" type="line"/>
    </contour>
  </outline>
</glyph>
<glyph name="oe" format="1">
  <advance width="1001"/>
  <unicode hex="0153"/>
  <outline>
    <contour>
      <point x="950.4" y="246.95" type="line"/>
      <point x="964.13" y="347.83"/>
      <point x="947.89" y="402.07"/>
      <point x="912.64" y="444.14" type="curve" smooth="yes"/>
      <point x="873.16" y="491.25"/>
      <point x="813.44" y="517.67"/>
      <point x="737.64" y="517.67" type="curve" smooth="yes"/>
      <point x="630.43" y="517.67"/>
      <point x="556.93" y="462.99"/>
      <point x="518.18" y="388.84" type="curve"/>
      <point x="473.51" y="465.98"/>
      <point x="390.28" y="517.84"/>
      <point x="294.98" y="517.84" type="curve" smooth="yes"/>
      <point x="153.64" y="517.84"/>
      <point x="37.0001" y="402.48"/>
      <point x="37.0001" y="258.92" type="curve" smooth="yes"/>
      <point x="37.0001" y="115.93"/>
      <point x="152.5" y="-1.52588e-05"/>
      <point x="294.98" y="-1.52588e-05" type="curve" smooth="yes"/>
      <point x="388.58" y="-1.52588e-05"/>
      <point x="470.01" y="50.08"/>
      <point x="515.21" y="124.31" type="curve"/>
      <point x="553.02" y="47.38"/>
      <point x="627.54" y="-10"/>
      <point x="739.01" y="-10" type="curve" smooth="yes"/>
      <point x="839.58" y="-10"/>
      <point x="913.58" y="41.61"/>
      <point x="953.89" y="107.02" type="curve"/>
      <point x="896.32" y="153.84" type="line"/>
      <point x="865.01" y="91.94"/>
      <point x="810.58" y="54"/>
      <point x="739.01" y="54" type="curve" smooth="yes"/>
      <point x="620.61" y="54"/>
      <point x="558.64" y="142.96"/>
      <point x="556.02" y="246.95" type="curve"/>
    </contour>
    <contour>
      <point x="193.01" y="64"/>
      <point x="107" y="150.31"/>
      <point x="107" y="258.92" type="curve" smooth="yes"/>
      <point x="107" y="367.82"/>
      <point x="193.84" y="453.85"/>
      <point x="294.98" y="453.85" type="curve" smooth="yes"/>
      <point x="396.95" y="453.85"/>
      <point x="482.96" y="367.54"/>
      <point x="482.96" y="258.92" type="curve" smooth="yes"/>
      <point x="482.96" y="151.34"/>
      <point x="397.32" y="64"/>
      <point x="294.98" y="64" type="curve" smooth="yes"/>
    </contour>
    <contour>
      <point x="561.63" y="307.95" type="line"/>
      <point x="579.55" y="390.17"/>
      <point x="639.55" y="453.67"/>
      <point x="737.64" y="453.67" type="curve" smooth="yes"/>
      <point x="831.66" y="453.67"/>
      <point x="897.27" y="394.55"/>
      <point x="887.36" y="307.95" type="curve"/>
    </contour>
  </outline>
</glyph>
<glyph name="Ydieresis" format="1">
  <advance width="638"/>
  <unicode hex="0178"/>
  <outline>
    <contour>
      <point x="133.78" y="833.79"/>
      <point x="155.25" y="855.25"/>
      <point x="180.27" y="855.25" type="curve" smooth="yes"/>
      <point x="205.3" y="855.25"/>
      <point x="226.76" y="833.78"/>
      <point x="226.76" y="808.75" type="curve" smooth="yes"/>
      <point x="226.76" y="783.73"/>
      <point x="205.3" y="762.26"/>
      <point x="180.27" y="762.26" type="curve" smooth="yes"/>
      <point x="155.25" y="762.26"/>
      <point x="133.78" y="783.72"/>
      <point x="133.78" y="808.75" type="curve" smooth="yes"/>
    </contour>
    <contour>
      <point x="413.12" y="833.79"/>
      <point x="434.59" y="855.25"/>
      <point x="459.61" y="855.25" type="curve" smooth="yes"/>
      <point x="484.64" y="855.25"/>
      <point x="506.1" y="833.78"/>
      <point x="506.1" y="808.75" type="curve" smooth="yes"/>
      <point x="506.1" y="783.73"/>
      <point x="484.64" y="762.26"/>
      <point x="459.61" y="762.26" type="curve" smooth="yes"/>
      <point x="434.59" y="762.26"/>
      <point x="413.12" y="783.72"/>
      <point x="413.12" y="808.75" type="curve" smooth="yes"/>
    </contour>
    <contour>
      <point x="318.99" y="404.83" type="line"/>
      <point x="89.76" y="700" type="line"/>
      <point x="3.99997" y="700" type="line"/>
      <point x="283.99" y="339.46" type="line"/>
      <point x="283.99" y="0" type="line"/>
      <point x="353.99" y="0" type="line"/>
      <point x="353.99" y="339.46" type="line"/>
      <point x="634.13" y="700" type="line"/>
      <point x="548.34" y="700" type="line"/>
    </contour>
  </outline>
</glyph>
<glyph name="Zcaron" format="1">
  <advance width="626"/>
  <unicode hex="017D"/>
  <outline>
    <contour>
      <point x="346.18" y="759.04" type="line"/>
      <point x="542.92" y="853.41" type="line"/>
      <point x="527.16" y="913.46" type="line"/>
      <point x="346.18" y="842.58" type="line"/>
      <point x="165.2" y="913.46" type="line"/>
      <point x="149.44" y="853.41" type="line"/>
    </contour>
    <contour>
      <point x="603.31" y="63.9999" type="line"/>
      <point x="150.25" y="63.9999" type="line"/>
      <point x="611.2" y="700" type="line"/>
      <point x="81.86" y="700" type="line"/>
      <point x="81.86" y="636.05" type="line"/>
      <point x="481.6" y="636.05" type="line"/>
      <point x="20" y="-6.10352e-05" type="line"/>
      <point x="603.31" y="-6.10352e-05" type="line"/>
    </contour>
  </outline>
</glyph>
<glyph name="zcaron" format="1">
  <advance width="539"/>
  <unicode hex="017E"/>
  <outline>
    <contour>
      <point x="282.81" y="554" type="line"/>
      <point x="479.55" y="648.37" type="line"/>
      <point x="463.79" y="708.42" type="line"/>
      <point x="282.81" y="637.55" type="line"/>
      <point x="101.83" y="708.42" type="line"/>
      <point x="86.07" y="648.37" type="line"/>
    </contour>
    <contour>
      <point x="480.58" y="64" type="line"/>
      <point x="159.11" y="64" type="line"/>
      <point x="481.04" y="454.29" type="line"/>
      <point x="481.04" y="500" type="line"/>
      <point x="66.63" y="500" type="line"/>
      <point x="66.63" y="436" type="line"/>
      <point x="386.3" y="436" type="line"/>
      <point x="61.97" y="52.05" type="line"/>
      <point x="61.97" y="-1.52588e-05" type="line"/>
      <point x="480.58" y="-1.52588e-05" type="line"/>
    </contour>
  </outline>
</glyph>
<glyph name="florin" format="1">
  <advance width="600"/>
  <unicode hex="0192"/>
  <outline>
    <contour>
      <point x="517.14" y="741.72" type="line"/>
      <point x="491.64" y="758.4"/>
      <point x="455.85" y="776.15"/>
      <point x="401.18" y="776.15" type="curve" smooth="yes"/>
      <point x="342.03" y="776.15"/>
      <point x="271.49" y="739.44"/>
      <point x="249.59" y="656.77" type="curve" smooth="yes"/>
      <point x="216.43" y="529.19" type="line"/>
      <point x="95.47" y="529.19" type="line"/>
      <point x="77.1001" y="465.19" type="line"/>
      <point x="199.89" y="465.19" type="line"/>
      <point x="56.73" y="-90.0001" type="line"/>
      <point x="128.63" y="-90.0001" type="line"/>
      <point x="271.84" y="465.19" type="line"/>
      <point x="428.03" y="465.19" type="line"/>
      <point x="446.41" y="529.19" type="line"/>
      <point x="288.37" y="529.19" type="line"/>
      <point x="317.26" y="640.38" type="line" smooth="yes"/>
      <point x="330.97" y="692.14"/>
      <point x="367.14" y="712.15"/>
      <point x="401.18" y="712.15" type="curve" smooth="yes"/>
      <point x="442.3" y="712.15"/>
      <point x="478.81" y="697.9"/>
      <point x="499.84" y="684.15" type="curve"/>
    </contour>
  </outline>
</glyph>
<glyph name="circumflex" format="1">
  <advance width="600"/>
  <unicode hex="02C6"/>
  <outline>
    <contour>
      <point x="282.81" y="624.86" type="line"/>
      <point x="463.79" y="554" type="line"/>
      <point x="479.55" y="614.05" type="line"/>
      <point x="282.81" y="708.42" type="line"/>
      <point x="86.07" y="614.05" type="line"/>
      <point x="101.83" y="554" type="line"/>
    </contour>
  </outline>
</glyph>
<glyph name="breve" format="1">
  <advance width="600"/>
  <unicode hex="02D8"/>
  <outline>
    <contour>
      <point x="366.3" y="719.16" type="line"/>
      <point x="366.3" y="681.77"/>
      <point x="336.19" y="651.48"/>
      <point x="297.78" y="651.48" type="curve" smooth="yes"/>
      <point x="259.59" y="651.48"/>
      <point x="229.28" y="681.53"/>
      <point x="229.28" y="719.16" type="curve"/>
      <point x="165.28" y="719.16" type="line"/>
      <point x="165.28" y="646.86"/>
      <point x="225.49" y="586.65"/>
      <point x="297.79" y="586.65" type="curve" smooth="yes"/>
      <point x="370.09" y="586.65"/>
      <point x="430.3" y="646.86"/>
      <point x="430.3" y="719.16" type="curve"/>
    </contour>
  </outline>
</glyph>
<glyph name="dotaccent" format="1">
  <advance width="600"/>
  <unicode hex="02D9"/>
  <outline>
    <contour>
      <point x="244.86" y="667.93"/>
      <point x="266.33" y="689.39"/>
      <point x="291.35" y="689.39" type="curve" smooth="yes"/>
      <point x="316.37" y="689.39"/>
      <point x="337.84" y="667.92"/>
      <point x="337.84" y="642.89" type="curve" smooth="yes"/>
      <point x="337.84" y="617.86"/>
      <point x="316.38" y="596.4"/>
      <point x="291.35" y="596.4" type="curve" smooth="yes"/>
      <point x="266.32" y="596.4"/>
      <point x="244.86" y="617.86"/>
      <point x="244.86" y="642.89" type="curve" smooth="yes"/>
    </contour>
  </outline>
</glyph>
<glyph name="ogonek" format="1">
  <advance width="600"/>
  <unicode hex="02DB"/>
  <outline>
    <contour>
      <point x="279.36" y="31.2" type="line"/>
      <point x="215.44" y="31.2"/>
      <point x="157.73" y="-25"/>
      <point x="157.73" y="-89" type="curve" smooth="yes"/>
      <point x="157.73" y="-153"/>
      <point x="215.32" y="-210"/>
      <point x="279.36" y="-210" type="curve"/>
      <point x="279.36" y="-146" type="line"/>
      <point x="241.57" y="-146"/>
      <point x="222.78" y="-119"/>
      <point x="222.78" y="-91" type="curve" smooth="yes"/>
      <point x="222.78" y="-62"/>
      <point x="243.13" y="-33"/>
      <point x="279.36" y="-33" type="curve"/>
    </contour>
  </outline>
</glyph>
<glyph name="tilde" format="1">
  <advance width="600"/>
  <unicode hex="02DC"/>
  <outline>
    <contour>
      <point x="397.64" y="673.08" type="line"/>
      <point x="403.25" y="653.19"/>
      <point x="407.6" y="630.25"/>
      <point x="383.95" y="630.25" type="curve" smooth="yes"/>
      <point x="341.44" y="630.25"/>
      <point x="285.89" y="690.05"/>
      <point x="222.78" y="684.6" type="curve" smooth="yes"/>
      <point x="178.64" y="680.79"/>
      <point x="144.16" y="644.66"/>
      <point x="129.89" y="598.09" type="curve"/>
      <point x="183.19" y="575.19" type="line"/>
      <point x="191.58" y="602.55"/>
      <point x="201.96" y="624.77"/>
      <point x="226.31" y="626.88" type="curve" smooth="yes"/>
      <point x="275.13" y="631.08"/>
      <point x="328.23" y="566.61"/>
      <point x="389.35" y="566.61" type="curve" smooth="yes"/>
      <point x="432.63" y="566.61"/>
      <point x="474.36" y="592.88"/>
      <point x="462.14" y="673.08" type="curve"/>
    </contour>
  </outline>
</glyph>
<glyph name="hungarumlaut" format="1">
  <advance width="600"/>
  <unicode hex="02DD"/>
  <outline>
    <contour>
      <point x="170.46" y="561.74" type="line"/>
      <point x="232.05" y="544.35" type="line"/>
      <point x="287.91" y="742.15" type="line"/>
      <point x="226.32" y="759.54" type="line"/>
    </contour>
    <contour>
      <point x="372.82" y="561.74" type="line"/>
      <point x="434.41" y="544.35" type="line"/>
      <point x="490.26" y="742.15" type="line"/>
      <point x="428.67" y="759.54" type="line"/>
    </contour>
  </outline>
</glyph>
<glyph name="Delta" format="1">
  <advance width="600"/>
  <unicode hex="0394"/>
  <outline>
    <contour>
      <point x="608.4" y="0" type="line"/>
      <point x="321.68" y="691.4" type="line"/>
      <point x="34.95" y="0" type="line"/>
    </contour>
    <contour>
      <point x="136.32" y="64" type="line"/>
      <point x="321.68" y="510.97" type="line"/>
      <point x="507.03" y="64" type="line"/>
    </contour>
  </outline>
</glyph>
<glyph name="endash" format="1">
  <advance width="600"/>
  <unicode hex="2013"/>
  <outline>
    <contour>
      <point x="503.02" y="282.93" type="line"/>
      <point x="503.02" y="346.93" type="line"/>
      <point x="112.91" y="346.93" type="line"/>
      <point x="112.91" y="282.93" type="line"/>
    </contour>
  </outline>
</glyph>
<glyph name="quoteleft" format="1">
  <advance width="169"/>
  <unicode hex="2018"/>
  <outline>
    <contour>
      <point x="102.67" y="640.23" type="line"/>
      <point x="106.55" y="719.94" type="line"/>
      <point x="40.09" y="719.94" type="line"/>
      <point x="40.09" y="636.21" type="line"/>
      <point x="79.52" y="541.39" type="line"/>
      <point x="129.16" y="568.17" type="line"/>
    </contour>
  </outline>
</glyph>
<glyph name="quoteright" format="1">
  <advance width="180"/>
  <unicode hex="2019"/>
  <outline>
    <contour>
      <point x="33.42" y="568.17" type="line"/>
      <point x="59.91" y="640.23" type="line"/>
      <point x="56.03" y="719.94" type="line"/>
      <point x="122.49" y="719.94" type="line"/>
      <point x="122.49" y="636.21" type="line"/>
      <point x="83.06" y="541.39" type="line"/>
    </contour>
  </outline>
</glyph>
<glyph name="quotedblleft" format="1">
  <advance width="336"/>
  <unicode hex="201C"/>
  <outline>
    <contour>
      <point x="122.25" y="640.23" type="line"/>
      <point x="126.13" y="719.94" type="line"/>
      <point x="59.67" y="719.94" type="line"/>
      <point x="59.67" y="636.21" type="line"/>
      <point x="99.1" y="541.39" type="line"/>
      <point x="148.74" y="568.17" type="line"/>
    </contour>
    <contour>
      <point x="269.52" y="640.23" type="line"/>
      <point x="273.4" y="719.94" type="line"/>
      <point x="206.93" y="719.94" type="line"/>
      <point x="206.93" y="636.21" type="line"/>
      <point x="246.36" y="541.39" type="line"/>
      <point x="296" y="568.17" type="line"/>
    </contour>
  </outline>
</glyph>
<glyph name="daggerdbl" format="1">
  <advance width="600"/>
  <unicode hex="2021"/>
  <outline>
    <contour>
      <point x="311.9" y="468" type="line"/>
      <point x="463.7" y="468" type="line"/>
      <point x="463.7" y="532" type="line"/>
      <point x="311.9" y="532" type="line"/>
      <point x="311.9" y="739.09" type="line"/>
      <point x="241.9" y="739.09" type="line"/>
      <point x="241.9" y="532" type="line"/>
      <point x="90.09" y="532" type="line"/>
      <point x="90.09" y="468" type="line"/>
      <point x="241.9" y="468" type="line"/>
      <point x="241.9" y="137.16" type="line"/>
      <point x="90.09" y="137.16" type="line"/>
      <point x="90.09" y="73.16" type="line"/>
      <point x="241.9" y="73.16" type="line"/>
      <point x="241.9" y="-139" type="line"/>
      <point x="311.9" y="-139" type="line"/>
      <point x="311.9" y="73.16" type="line"/>
      <point x="463.7" y="73.16" type="line"/>
      <point x="463.7" y="137.16" type="line"/>
      <point x="311.9" y="137.16" type="line"/>
    </contour>
  </outline>
</glyph>
<glyph name="perthousand" format="1">
  <advance width="976"/>
  <unicode hex="2030"/>
  <outline>
    <contour>
      <point x="246.27" y="356"/>
      <point x="302.72" y="417.79"/>
      <point x="302.72" y="534.96" type="curve" smooth="yes"/>
      <point x="302.72" y="652.21"/>
      <point x="246.17" y="711.13"/>
      <point x="178" y="711.13" type="curve" smooth="yes"/>
      <point x="109.82" y="711.13"/>
      <point x="53.28" y="652.21"/>
      <point x="53.28" y="534.96" type="curve" smooth="yes"/>
      <point x="53.28" y="417.79"/>
      <point x="109.72" y="356"/>
      <point x="178" y="356" type="curve" smooth="yes"/>
    </contour>
    <contour>
      <point x="63.7" y="0.039978" type="line"/>
      <point x="145.72" y="0.039978" type="line"/>
      <point x="620.25" y="710.78" type="line"/>
      <point x="538.54" y="710.78" type="line"/>
    </contour>
    <contour>
      <point x="152.88" y="420"/>
      <point x="123.28" y="452.32"/>
      <point x="123.28" y="534.96" type="curve" smooth="yes"/>
      <point x="123.28" y="616.8"/>
      <point x="151.99" y="647.13"/>
      <point x="178" y="647.13" type="curve" smooth="yes"/>
      <point x="204.01" y="647.13"/>
      <point x="232.72" y="616.8"/>
      <point x="232.72" y="534.96" type="curve" smooth="yes"/>
      <point x="232.72" y="452.32"/>
      <point x="203.11" y="420"/>
      <point x="178" y="420" type="curve" smooth="yes"/>
    </contour>
    <contour>
      <point x="496.9" y="-4.00006" type="line"/>
      <point x="565.18" y="-4.00006"/>
      <point x="621.62" y="57.3999"/>
      <point x="621.62" y="174.57" type="curve" smooth="yes"/>
      <point x="621.62" y="291.82"/>
      <point x="565.07" y="350.74"/>
      <point x="496.9" y="350.74" type="curve" smooth="yes"/>
      <point x="428.72" y="350.74"/>
      <point x="372.18" y="291.82"/>
      <point x="372.18" y="174.57" type="curve" smooth="yes"/>
      <point x="372.18" y="57.3999"/>
      <point x="428.62" y="-4.00005"/>
      <point x="496.9" y="-4.00005" type="curve"/>
    </contour>
    <contour>
      <point x="866.28" y="-4.00005"/>
      <point x="922.72" y="57.3999"/>
      <point x="922.72" y="174.57" type="curve" smooth="yes"/>
      <point x="922.72" y="291.82"/>
      <point x="866.17" y="350.74"/>
      <point x="798" y="350.74" type="curve" smooth="yes"/>
      <point x="729.82" y="350.74"/>
      <point x="673.28" y="291.82"/>
      <point x="673.28" y="174.57" type="curve" smooth="yes"/>
      <point x="673.28" y="57.3999"/>
      <point x="729.72" y="-4.00005"/>
      <point x="798" y="-4.00005" type="curve" smooth="yes"/>
    </contour>
    <contour>
      <point x="471.79" y="59.61"/>
      <point x="442.18" y="91.93"/>
      <point x="442.18" y="174.57" type="curve" smooth="yes"/>
      <point x="442.18" y="256.41"/>
      <point x="470.89" y="286.74"/>
      <point x="496.9" y="286.74" type="curve" smooth="yes"/>
      <point x="522.91" y="286.74"/>
      <point x="551.62" y="256.4"/>
      <point x="551.62" y="174.57" type="curve" smooth="yes"/>
      <point x="551.62" y="91.93"/>
      <point x="522.01" y="59.61"/>
      <point x="496.9" y="59.61" type="curve" smooth="yes"/>
    </contour>
    <contour>
      <point x="772.89" y="59.61"/>
      <point x="743.28" y="91.93"/>
      <point x="743.28" y="174.57" type="curve" smooth="yes"/>
      <point x="743.28" y="256.41"/>
      <point x="771.99" y="286.74"/>
      <point x="798" y="286.74" type="curve" smooth="yes"/>
      <point x="824.01" y="286.74"/>
      <point x="852.72" y="256.4"/>
      <point x="852.72" y="174.57" type="curve" smooth="yes"/>
      <point x="852.72" y="91.93"/>
      <point x="823.11" y="59.61"/>
      <point x="798" y="59.61" type="curve" smooth="yes"/>
    </contour>
  </outline>
</glyph>
<glyph name="foursuperior" format="1">
  <advance width="358"/>
  <unicode hex="2074"/>
  <outline>
    <contour>
      <point x="254.33" y="585.84" type="line"/>
      <point x="302.43" y="585.84" type="line"/>
      <point x="302.43" y="644.84" type="line"/>
      <point x="254.33" y="644.84" type="line"/>
      <point x="254.33" y="898.6" type="line"/>
      <point x="203.42" y="898.6" type="line"/>
      <point x="37" y="641.8" type="line"/>
      <point x="37" y="585.84" type="line"/>
      <point x="184.33" y="585.84" type="line"/>
      <point x="184.33" y="500" type="line"/>
      <point x="254.33" y="500" type="line"/>
    </contour>
    <contour>
      <point x="184.33" y="754.85" type="line"/>
      <point x="184.33" y="644.84" type="line"/>
      <point x="114.79" y="644.84" type="line"/>
    </contour>
  </outline>
</glyph>
<glyph name="Euro" format="1">
  <advance width="649"/>
  <unicode hex="20AC"/>
  <outline>
    <contour>
      <point x="568.84" y="119.85" type="line"/>
      <point x="524.89" y="77.96"/>
      <point x="479.06" y="57.6"/>
      <point x="424.41" y="57.6" type="curve" smooth="yes"/>
      <point x="338.44" y="57.6"/>
      <point x="260.43" y="116.37"/>
      <point x="219.54" y="206.15" type="curve"/>
      <point x="466.01" y="206.15" type="line"/>
      <point x="466.01" y="270.15" type="line"/>
      <point x="198.13" y="270.15" type="line"/>
      <point x="192.52" y="295.08"/>
      <point x="189.5" y="321.49"/>
      <point x="189.5" y="348.97" type="curve" smooth="yes"/>
      <point x="189.5" y="357.99"/>
      <point x="189.83" y="366.9"/>
      <point x="190.46" y="375.68" type="curve"/>
      <point x="466.01" y="375.68" type="line"/>
      <point x="466.01" y="439.68" type="line"/>
      <point x="201.03" y="439.68" type="line"/>
      <point x="232.21" y="558.16"/>
      <point x="322.74" y="640.35"/>
      <point x="424.41" y="640.35" type="curve" smooth="yes"/>
      <point x="479.03" y="640.35"/>
      <point x="524.84" y="620.02"/>
      <point x="568.78" y="578.16" type="curve"/>
      <point x="617.06" y="624.51" type="line"/>
      <point x="565.16" y="673.94"/>
      <point x="497.22" y="704.35"/>
      <point x="424.41" y="704.35" type="curve" smooth="yes"/>
      <point x="283.44" y="704.35"/>
      <point x="164.28" y="591.29"/>
      <point x="129.66" y="439.68" type="curve"/>
      <point x="19.9999" y="439.68" type="line"/>
      <point x="19.9999" y="375.68" type="line"/>
      <point x="120.36" y="375.68" type="line"/>
      <point x="119.5" y="348.97" type="line" smooth="yes"/>
      <point x="119.5" y="321.91"/>
      <point x="122.14" y="295.53"/>
      <point x="127.13" y="270.15" type="curve"/>
      <point x="19.9999" y="270.15" type="line"/>
      <point x="19.9999" y="206.15" type="line"/>
      <point x="145.44" y="206.15" type="line"/>
      <point x="192.85" y="81.62"/>
      <point x="300.15" y="-6.00003"/>
      <point x="424.41" y="-6.00003" type="curve" smooth="yes"/>
      <point x="497.26" y="-6.00003"/>
      <point x="565.23" y="24.04"/>
      <point x="617.14" y="73.52" type="curve"/>
    </contour>
  </outline>
</glyph>
<glyph name="partialdiff" format="1">
  <advance width="600"/>
  <unicode hex="2202"/>
  <outline>
    <contour>
      <point x="63.64" y="771.95" type="line"/>
      <point x="237.07" y="771.95"/>
      <point x="363.91" y="659.77"/>
      <point x="424.64" y="494.79" type="curve"/>
      <point x="384.58" y="526.19"/>
      <point x="336.05" y="544.72"/>
      <point x="283.31" y="544.72" type="curve" smooth="yes"/>
      <point x="215.74" y="544.72"/>
      <point x="148.8" y="510.11"/>
      <point x="106.59" y="461.8" type="curve" smooth="yes"/>
      <point x="61.1799" y="409.84"/>
      <point x="31.8699" y="334.21"/>
      <point x="31.8699" y="256.36" type="curve" smooth="yes"/>
      <point x="31.8699" y="99.8801"/>
      <point x="142.59" y="-31.9999"/>
      <point x="283.31" y="-31.9999" type="curve" smooth="yes"/>
      <point x="353.79" y="-31.9999"/>
      <point x="423.1" y="5.55008"/>
      <point x="465.7" y="57.5301" type="curve" smooth="yes"/>
      <point x="507.84" y="108.94"/>
      <point x="534.76" y="181.72"/>
      <point x="534.76" y="256.36" type="curve" smooth="yes"/>
      <point x="534.76" y="567.7"/>
      <point x="359.44" y="835.95"/>
      <point x="63.6399" y="835.95" type="curve"/>
    </contour>
    <contour>
      <point x="376.81" y="55.7001"/>
      <point x="332.63" y="32.0001"/>
      <point x="283.31" y="32.0001" type="curve" smooth="yes"/>
      <point x="184.93" y="32.0001"/>
      <point x="101.87" y="129.64"/>
      <point x="101.87" y="256.36" type="curve" smooth="yes"/>
      <point x="101.87" y="321.23"/>
      <point x="124.6" y="379.98"/>
      <point x="159.3" y="419.69" type="curve" smooth="yes"/>
      <point x="193.6" y="458.94"/>
      <point x="236.14" y="480.72"/>
      <point x="283.31" y="480.72" type="curve" smooth="yes"/>
      <point x="381.7" y="480.72"/>
      <point x="464.76" y="383.08"/>
      <point x="464.76" y="256.36" type="curve" smooth="yes"/>
      <point x="464.76" y="192.23"/>
      <point x="445.05" y="138.95"/>
      <point x="411.56" y="98.1001" type="curve" smooth="yes"/>
    </contour>
  </outline>
</glyph>
<glyph name="radical" format="1">
  <advance width="630"/>
  <unicode hex="221A"/>
  <outline>
    <contour>
      <point x="366.98" y="-105" type="line"/>
      <point x="372.36" y="-105" type="line"/>
      <point x="620.6" y="742.14" type="line"/>
      <point x="548.26" y="742.14" type="line"/>
      <point x="363.92" y="113.41" type="line"/>
      <point x="227.29" y="503.42" type="line"/>
      <point x="80" y="503.42" type="line"/>
      <point x="80" y="439.42" type="line"/>
      <point x="176.23" y="439.42" type="line"/>
    </contour>
  </outline>
</glyph>
<glyph name="approxequal" format="1">
  <advance width="600"/>
  <unicode hex="2248"/>
  <outline>
    <contour>
      <point x="445" y="487.57" type="line"/>
      <point x="445" y="463.2"/>
      <point x="432.25" y="447.23"/>
      <point x="403.63" y="447.23" type="curve" smooth="yes"/>
      <point x="339.72" y="447.23"/>
      <point x="329.83" y="504.91"/>
      <point x="238.83" y="504.91" type="curve" smooth="yes"/>
      <point x="176.89" y="504.91"/>
      <point x="133.57" y="459.6"/>
      <point x="133.57" y="397.16" type="curve"/>
      <point x="190.68" y="397.16" type="line"/>
      <point x="190.68" y="426.77"/>
      <point x="203.97" y="446.67"/>
      <point x="238.83" y="446.67" type="curve" smooth="yes"/>
      <point x="287.81" y="446.67"/>
      <point x="334.8" y="387.63"/>
      <point x="400.7" y="387.63" type="curve" smooth="yes"/>
      <point x="454.43" y="387.63"/>
      <point x="510.96" y="410.41"/>
      <point x="510.96" y="487.57" type="curve"/>
    </contour>
    <contour>
      <point x="445" y="269.01" type="line"/>
      <point x="445" y="244.65"/>
      <point x="432.25" y="228.67"/>
      <point x="403.63" y="228.67" type="curve" smooth="yes"/>
      <point x="339.72" y="228.67"/>
      <point x="329.83" y="286.36"/>
      <point x="238.83" y="286.36" type="curve" smooth="yes"/>
      <point x="176.89" y="286.36"/>
      <point x="133.57" y="241.04"/>
      <point x="133.57" y="178.6" type="curve"/>
      <point x="190.68" y="178.6" type="line"/>
      <point x="190.68" y="208.21"/>
      <point x="203.97" y="228.11"/>
      <point x="238.83" y="228.11" type="curve" smooth="yes"/>
      <point x="287.81" y="228.11"/>
      <point x="334.8" y="169.08"/>
      <point x="400.7" y="169.08" type="curve" smooth="yes"/>
      <point x="454.43" y="169.08"/>
      <point x="510.96" y="191.85"/>
      <point x="510.96" y="269.01" type="curve"/>
    </contour>
  </outline>
</glyph>
<glyph name="notequal" format="1">
  <advance width="600"/>
  <unicode hex="2260"/>
  <outline>
    <contour>
      <point x="363.3" y="387.78" type="line"/>
      <point x="520.4" y="387.78" type="line"/>
      <point x="520.4" y="451.78" type="line"/>
      <point x="382.6" y="451.78" type="line"/>
      <point x="462.92" y="718.1" type="line"/>
      <point x="401.65" y="736.57" type="line"/>
      <point x="315.81" y="451.78" type="line"/>
      <point x="88.24" y="451.78" type="line"/>
      <point x="88.24" y="387.78" type="line"/>
      <point x="296.52" y="387.78" type="line"/>
      <point x="237.5" y="191.97" type="line"/>
      <point x="88.24" y="191.97" type="line"/>
      <point x="88.24" y="127.97" type="line"/>
      <point x="218.21" y="127.97" type="line"/>
      <point x="147.38" y="-107" type="line"/>
      <point x="208.65" y="-125" type="line"/>
      <point x="284.94" y="127.97" type="line"/>
      <point x="520.4" y="127.97" type="line"/>
      <point x="520.4" y="191.97" type="line"/>
      <point x="304.25" y="191.97" type="line"/>
    </contour>
  </outline>
</glyph>
<glyph name="lozenge" format="1">
  <advance width="654"/>
  <unicode hex="25CA"/>
  <outline>
    <contour>
      <point x="641.76" y="269.69" type="line"/>
      <point x="326.72" y="584.73" type="line"/>
      <point x="12" y="269.69" type="line"/>
      <point x="326.72" y="-45" type="line"/>
    </contour>
    <contour>
      <point x="106.43" y="269.69" type="line"/>
      <point x="326.72" y="489.98" type="line"/>
      <point x="547.01" y="269.69" type="line"/>
      <point x="326.72" y="49.4" type="line"/>
    </contour>
  </outline>
</glyph>
<glyph name="fi" format="1">
  <advance width="535"/>
  <unicode hex="FB01"/>
  <outline>
    <contour>
      <point x="102.59" y="507.37" type="line"/>
      <point x="9" y="507.37" type="line"/>
      <point x="9" y="443.37" type="line"/>
      <point x="102.59" y="443.37" type="line"/>
      <point x="102.59" y="0" type="line"/>
      <point x="172.59" y="0" type="line"/>
      <point x="172.59" y="443.37" type="line"/>
      <point x="399.38" y="443.37" type="line"/>
      <point x="399.38" y="0" type="line"/>
      <point x="469.38" y="0" type="line"/>
      <point x="469.38" y="507.37" type="line"/>
      <point x="172.59" y="507.37" type="line"/>
      <point x="172.59" y="560.51" type="line" smooth="yes"/>
      <point x="172.59" y="612.23"/>
      <point x="184.74" y="650.89"/>
      <point x="235.6" y="650.89" type="curve" smooth="yes"/>
      <point x="255.35" y="650.89"/>
      <point x="271.52" y="649.13"/>
      <point x="307.83" y="628.45" type="curve"/>
      <point x="342.47" y="684.07" type="line"/>
      <point x="295.19" y="710.99"/>
      <point x="259.49" y="714.89"/>
      <point x="235.6" y="714.89" type="curve" smooth="yes"/>
      <point x="124.58" y="714.89"/>
      <point x="102.59" y="623.17"/>
      <point x="102.59" y="560.51" type="curve" smooth="yes"/>
    </contour>
    <contour>
      <point x="411.71" y="671.06"/>
      <point x="393.31" y="652.65"/>
      <point x="393.31" y="629.95" type="curve" smooth="yes"/>
      <point x="393.31" y="607.25"/>
      <point x="411.71" y="588.84"/>
      <point x="434.42" y="588.84" type="curve" smooth="yes"/>
      <point x="457.12" y="588.84"/>
      <point x="475.52" y="607.25"/>
      <point x="475.52" y="629.95" type="curve" smooth="yes"/>
      <point x="475.52" y="652.65"/>
      <point x="457.12" y="671.06"/>
      <point x="434.42" y="671.06" type="curve" smooth="yes"/>
    </contour>
  </outline>
</glyph>
